<svg width="40" height="41" viewBox="0 0 40 41" fill="none" xmlns="http://www.w3.org/2000/svg">
<path fill-rule="evenodd" clip-rule="evenodd" d="M20 0C31.0378 0 40 9.07409 40 20.2768C40 31.4674 31.0498 40.5536 20 40.5536C8.96221 40.5536 0 31.4795 0 20.2768C0 9.08625 8.95021 0 20 0ZM15.3209 9.14707H24.6791C28.1944 9.14707 31.0618 12.0299 31.0618 15.533V24.9963C31.0618 28.5116 28.1944 31.3822 24.6791 31.3822H15.3209C11.8056 31.3822 8.93821 28.5116 8.93821 24.9963V15.533C8.93821 12.0177 11.8176 9.14707 15.3209 9.14707ZM19.94 14.268C23.3593 14.268 26.1308 17.0778 26.1308 20.5444C26.1308 24.0111 23.3593 26.8209 19.94 26.8209C16.5207 26.8209 13.7492 24.0111 13.7492 20.5444C13.7492 17.0778 16.5207 14.268 19.94 14.268ZM19.94 16.3844C22.1956 16.3844 24.0312 18.2455 24.0312 20.5322C24.0312 22.819 22.1956 24.6801 19.94 24.6801C17.6725 24.6801 15.8488 22.819 15.8488 20.5322C15.8488 18.2455 17.6845 16.3844 19.94 16.3844ZM25.9268 13.3922C26.4787 13.3922 26.9346 13.8422 26.9346 14.4139C26.9346 14.9735 26.4907 15.4357 25.9268 15.4357C25.3749 15.4357 24.919 14.9856 24.919 14.4139C24.919 13.8544 25.3629 13.3922 25.9268 13.3922ZM16.0888 10.9595H23.9112C26.8506 10.9595 29.2502 13.38 29.2502 16.348V24.3273C29.2502 27.2952 26.8506 29.7158 23.9112 29.7158H16.0888C13.1494 29.7158 10.7499 27.2952 10.7499 24.3273V16.348C10.7499 13.38 13.1494 10.9595 16.0888 10.9595Z" fill="white"/>
</svg>
