<svg width="250" height="61" viewBox="0 0 250 61" fill="none" xmlns="http://www.w3.org/2000/svg">
<path d="M35.2277 6.52005V0C35.1953 0 35.1628 0 35.1304 0C33.5734 0 32.0488 0.0973141 30.5566 0.291942L31.4 6.77955C32.6327 6.61736 33.8978 6.52005 35.1953 6.52005H35.2277Z" fill="#65BC46"/>
<path d="M13.3645 32.2758L19.7548 33.0868C19.8521 32.4056 19.9819 31.7568 20.144 31.108C20.3062 30.4593 20.5333 29.8105 20.7928 29.1942L14.8566 26.7289L8.75829 24.1987C8.27172 25.3341 7.88246 26.5343 7.55808 27.7345L1.16779 26.0153C0.77853 27.475 0.486588 28.9996 0.259521 30.5241L6.81201 31.4L13.3645 32.2758Z" fill="#65BC46"/>
<path d="M44.3428 1.23267L42.656 7.52565C43.8562 7.85003 45.0564 8.27172 46.1918 8.72585L48.7219 2.72482C47.2946 2.10849 45.8349 1.62192 44.3428 1.23267Z" fill="#65BC46"/>
<path d="M21.7659 52.5496C21.0199 51.9657 20.2738 51.317 19.5926 50.6682L14.9215 55.3069C15.7973 56.1827 16.738 57.0261 17.7112 57.7721L21.7659 52.5496Z" fill="#65BC46"/>
<path d="M13.9484 40.8395L20.1765 39.1851C20.0143 38.5364 19.8845 37.8876 19.7872 37.2064C19.6899 36.5252 19.6575 35.844 19.6575 35.1304H13.2347C13.2347 36.1035 13.2996 37.0767 13.4294 38.0174L6.87687 38.8607C6.71467 37.6281 6.61736 36.3955 6.61736 35.1304H0C0 36.6874 0.0973141 38.212 0.291942 39.7041C0.486571 41.2287 0.778513 42.7533 1.16777 44.213L7.5905 42.4938L13.9484 40.8395Z" fill="#65BC46"/>
<path d="M22.8364 44.5698C22.4147 44.0184 22.0578 43.4669 21.701 42.8831C21.3766 42.2992 21.0523 41.7153 20.7928 41.0665L14.8566 43.5318C15.2134 44.4076 15.6351 45.2835 16.1217 46.0944L10.4126 49.4031L4.63861 52.7442C5.41712 54.0742 6.26051 55.3393 7.20122 56.5719C8.14192 57.8046 9.1475 58.9399 10.218 60.0428L14.9215 55.3393C14.0456 54.4634 13.2347 53.5227 12.4562 52.5172L17.6787 48.4948L22.8364 44.5698Z" fill="#65BC46"/>
<path d="M39.2176 20.0792C39.8664 20.2414 40.5151 20.4684 41.1314 20.7279L43.6292 14.7918C42.7533 14.435 41.8451 14.1106 40.9044 13.8511L39.2176 20.0792Z" fill="#65BC46"/>
<path d="M32.2434 13.3321L31.4 6.81201C30.1349 6.9742 28.9347 7.2337 27.7345 7.55808L26.0477 1.23267C24.5556 1.62192 23.0959 2.14093 21.701 2.72482L24.1988 8.79073L26.7289 14.8891C25.8531 15.2459 24.9773 15.7 24.1663 16.1866L27.3777 21.7659C27.9616 21.4416 28.5779 21.1172 29.1942 20.8577C29.8106 20.5982 30.4593 20.3711 31.1081 20.2089C31.7568 20.0467 32.4056 19.8845 33.0868 19.8197C33.768 19.7224 34.4816 19.6899 35.1953 19.6899C35.2277 19.6899 35.2277 19.6899 35.2602 19.6899V13.2672C35.2277 13.2672 35.2277 13.2672 35.1953 13.2672C34.1897 13.105 33.2166 13.2023 32.2434 13.3321Z" fill="#65BC46"/>
<path d="M35.2277 13.1049C36.2009 13.1049 37.1416 13.1698 38.0823 13.2996L38.9581 6.77952C37.7255 6.61733 36.4928 6.52002 35.2277 6.52002L35.2277 13.1049Z" fill="#65BC46"/>
<path d="M17.7436 12.4886L13.7213 7.26611C12.4887 8.20682 11.3533 9.2124 10.2504 10.2829L14.8891 14.9215L19.5601 19.5926C20.2413 18.9114 20.955 18.2626 21.7335 17.6787C22.4796 17.0948 23.2905 16.5434 24.1339 16.0568L20.8252 10.3802C19.7548 11.0289 18.7168 11.7101 17.7436 12.4886Z" fill="#65BC46"/>
<path d="M22.7715 25.6909C23.1932 25.1394 23.6473 24.6204 24.1014 24.1339L19.5601 19.5925C18.8789 20.2737 18.2626 20.9874 17.6787 21.7659L22.7715 25.6909Z" fill="#65BC46"/>
<path d="M7.23369 13.7538C6.29298 14.954 5.44959 16.2515 4.67108 17.5815L10.3802 20.8902L16.0893 24.1988C16.5758 23.3554 17.0949 22.5769 17.6787 21.7984L12.4562 17.7761L7.23369 13.7538Z" fill="#65BC46"/>
<path d="M52.8092 4.76843L49.5329 10.3802L46.2242 16.0893C47.0676 16.5759 47.8461 17.1273 48.6247 17.7112L52.647 12.4887L56.6369 7.33104C55.4042 6.39033 54.1391 5.51451 52.8092 4.76843Z" fill="#65BC46"/>
<path d="M49.5329 10.3802C48.4625 9.76385 47.3271 9.2124 46.1918 8.72583L43.6616 14.7917C44.5374 15.1486 45.4133 15.6027 46.2242 16.0893L49.5329 10.3802Z" fill="#231F20"/>
<path d="M38.0823 13.2996L37.2389 19.6899C37.9201 19.7872 38.5689 19.9169 39.2176 20.0791L40.9044 13.8834C39.9961 13.6239 39.0554 13.4293 38.0823 13.2996Z" fill="#231F20"/>
<path d="M35.1629 6.52002C33.8653 6.52002 32.6327 6.61733 31.3676 6.77952L32.211 13.2996C33.1841 13.1698 34.1573 13.1049 35.1304 13.1049C35.1629 13.1049 35.1629 13.1049 35.1953 13.1049V6.52002C35.2277 6.52002 35.1953 6.52002 35.1629 6.52002Z" fill="#231F20"/>
<path d="M8.7583 24.2312L14.8567 26.7614C15.2135 25.8856 15.6352 25.0097 16.1217 24.1988L10.3802 20.8577C9.76388 21.9606 9.21243 23.0635 8.7583 24.2312Z" fill="#231F20"/>
<path d="M14.9539 55.3069L19.625 50.6682C18.9438 49.987 18.3275 49.2734 17.7436 48.4949L12.5211 52.5172C13.2671 53.4903 14.0781 54.431 14.9539 55.3069Z" fill="#231F20"/>
<path d="M16.0893 24.1663L21.6686 27.3777C21.993 26.7938 22.3823 26.2099 22.804 25.6909L17.6788 21.7659C17.0949 22.5444 16.5759 23.3553 16.0893 24.1663Z" fill="#231F20"/>
<path d="M13.1699 35.098V35.1304H19.5926V35.098C19.5926 34.4168 19.625 33.7356 19.7223 33.0868L13.3321 32.2434C13.2672 33.1841 13.1699 34.1573 13.1699 35.098Z" fill="#231F20"/>
<path d="M8.75828 46.062L14.8566 43.5318C14.4998 42.656 14.1754 41.7477 13.9484 40.8395L7.59052 42.5263C7.88246 43.7265 8.30415 44.9267 8.75828 46.062Z" fill="#231F20"/>
<path d="M21.7335 17.7111L25.6585 22.8039C26.2099 22.3822 26.7614 21.993 27.3452 21.6686L24.1339 16.0892C23.2905 16.5758 22.512 17.0948 21.7335 17.7111Z" fill="#231F20"/>
<path fill-rule="evenodd" clip-rule="evenodd" d="M28.6104 50.8953C28.9023 50.9926 29.1942 51.0575 29.5186 51.0575C29.843 51.0575 30.1674 50.9926 30.4269 50.8953C30.7188 50.7656 30.9459 50.6034 31.1405 50.4087C31.3352 50.2141 31.4973 49.9546 31.5947 49.6951C31.692 49.4356 31.7568 49.1437 31.7568 48.8193C31.7568 48.5273 31.692 48.203 31.5947 47.9435C31.4973 47.6839 31.3352 47.4244 31.1405 47.2298C30.9459 47.0027 30.6864 46.873 30.4269 46.7432C30.1349 46.6459 29.843 46.5811 29.5186 46.5811C29.1942 46.5811 28.8699 46.6135 28.6104 46.7432C28.3184 46.873 28.0913 47.0352 27.8967 47.2298C27.7021 47.4244 27.5399 47.6839 27.4426 47.9435C27.3453 48.203 27.2804 48.4949 27.2804 48.8193C27.2804 49.1112 27.3453 49.4356 27.4426 49.6951C27.5399 49.9546 27.7021 50.2141 27.8967 50.4087C28.0913 50.6358 28.3509 50.7656 28.6104 50.8953ZM30.1998 50.3763C29.9728 50.4736 29.7781 50.5061 29.5186 50.5061C29.2916 50.5061 29.0645 50.4736 28.8374 50.3763C28.6428 50.279 28.4482 50.1817 28.3184 50.0195C28.1887 49.8573 28.0589 49.6627 27.994 49.468C27.8967 49.2734 27.8643 49.0463 27.8643 48.8193C27.8643 48.5922 27.9292 48.3651 27.994 48.1705C28.0589 47.9435 28.1887 47.7813 28.3184 47.6191C28.4806 47.4893 28.6428 47.3596 28.8374 47.2623C29.0645 47.1649 29.2591 47.1325 29.5186 47.1325C29.7781 47.1325 30.0052 47.1649 30.1998 47.2623C30.3944 47.3596 30.5891 47.4569 30.7188 47.6191C30.8486 47.7813 30.9783 47.9759 31.0432 48.1705C31.1405 48.3651 31.173 48.5922 31.173 48.8193C31.173 49.0463 31.1081 49.2734 31.0432 49.468C30.9783 49.6951 30.8486 49.8573 30.7188 50.0195C30.5566 50.1492 30.3944 50.279 30.1998 50.3763Z" fill="#231F20"/>
<path d="M32.5029 48.0732H33.0543V48.5273C33.1192 48.3652 33.249 48.2354 33.4112 48.1705C33.5734 48.0732 33.768 48.0408 33.995 48.0408C34.1248 48.0408 34.2546 48.0732 34.3843 48.1056C34.5141 48.1381 34.6114 48.203 34.7087 48.3003C34.806 48.3976 34.8709 48.4949 34.9358 48.6571C35.0006 48.7868 35.0331 48.949 35.0331 49.1437V50.9926H34.4816V49.3059C34.4816 49.1761 34.4492 49.0464 34.4167 48.949C34.3843 48.8517 34.3194 48.7868 34.287 48.722C34.2221 48.6571 34.1572 48.6247 34.0924 48.5922C34.0275 48.5598 33.9302 48.5598 33.8329 48.5598C33.7355 48.5598 33.6058 48.5922 33.5085 48.6247C33.4112 48.6571 33.3138 48.722 33.249 48.7868C33.1841 48.8517 33.1192 48.9815 33.0868 49.0788C33.0543 49.2085 33.0219 49.3383 33.0219 49.5005V50.9926H32.4705V48.0732H32.5029Z" fill="#231F20"/>
<path d="M37.4011 48.5597H36.6225V49.8572C36.6225 49.9221 36.6225 50.0194 36.6225 50.0843C36.6225 50.1492 36.655 50.2465 36.655 50.3113C36.6874 50.3762 36.7199 50.4087 36.7847 50.4735C36.8496 50.506 36.9145 50.5384 37.0118 50.5384C37.0767 50.5384 37.1416 50.5384 37.2064 50.506C37.2713 50.506 37.3362 50.4735 37.4011 50.4411V50.9277C37.3362 50.9601 37.2389 50.9925 37.1416 50.9925C37.0442 50.9925 36.9469 51.025 36.9145 51.025C36.7199 51.025 36.5577 50.9925 36.4279 50.9277C36.2982 50.8628 36.2333 50.7979 36.1684 50.7006C36.1035 50.6033 36.0711 50.506 36.0711 50.3762C36.0711 50.2465 36.0711 50.1492 36.0711 50.0194V48.5273H35.4548V48.0407H36.0711V47.2297H36.6225V48.0407H37.4011V48.5597Z" fill="#231F20"/>
<path fill-rule="evenodd" clip-rule="evenodd" d="M38.6337 48.1056C38.4391 48.1705 38.2769 48.3002 38.1147 48.43L38.4066 48.7868C38.4715 48.7219 38.504 48.6895 38.5688 48.6571C38.6013 48.6246 38.6662 48.5922 38.731 48.5597C38.7635 48.5435 38.804 48.5354 38.8446 48.5273C38.8851 48.5192 38.9257 48.5111 38.9581 48.4949C39.023 48.4624 39.1203 48.4624 39.2176 48.4624C39.3149 48.4624 39.4122 48.4949 39.5095 48.5273C39.6069 48.5597 39.6717 48.5922 39.7366 48.6571C39.8015 48.7219 39.8339 48.7868 39.8664 48.8517C39.8988 48.949 39.8988 49.0139 39.8988 49.0788V49.2085H39.5095C39.2825 49.2085 39.0554 49.2409 38.8932 49.2734C38.731 49.3058 38.5364 49.3707 38.4066 49.4356C38.2769 49.5004 38.1796 49.5978 38.0823 49.7275C37.985 49.8248 37.9525 49.987 37.9525 50.1816C37.9525 50.3114 37.9525 50.4412 38.0174 50.5385C38.0823 50.6358 38.1471 50.7331 38.2445 50.798C38.3418 50.8628 38.4391 50.9277 38.5688 50.9602C38.6986 50.9926 38.8283 51.025 38.9581 51.025C39.1852 51.025 39.3798 50.9602 39.542 50.8953C39.7042 50.8304 39.8339 50.7007 39.9637 50.506C39.9637 50.5709 39.9718 50.6439 39.9799 50.7169C39.988 50.7899 39.9961 50.8628 39.9961 50.9277H40.4827C40.4502 50.8628 40.4502 50.798 40.4502 50.7007V50.4087V48.949C40.4502 48.8415 40.428 48.7563 40.4019 48.6564C40.3965 48.6358 40.3909 48.6144 40.3854 48.5922C40.3205 48.4949 40.2556 48.3976 40.1583 48.3002C40.061 48.2029 39.9637 48.1381 39.8015 48.0732C39.6393 48.0407 39.4447 48.0083 39.25 48.0083C39.023 48.0083 38.8283 48.0407 38.6337 48.1056ZM39.25 49.5978C39.3798 49.5653 39.5095 49.5653 39.6393 49.5653V49.5978H39.9637V49.7924C39.9637 49.8897 39.9637 49.987 39.9312 50.0843C39.8988 50.1816 39.8664 50.279 39.8015 50.3438C39.7366 50.4087 39.6393 50.4736 39.542 50.5385C39.4447 50.5709 39.3149 50.6033 39.1527 50.6033C38.9581 50.6033 38.7959 50.5709 38.6986 50.506C38.6013 50.4412 38.5364 50.3114 38.5364 50.1492C38.5364 50.0195 38.5688 49.9221 38.6337 49.8573C38.6986 49.7924 38.7959 49.7275 38.8932 49.6951C38.9905 49.6302 39.1203 49.5978 39.25 49.5978Z" fill="#231F20"/>
<path d="M41.2612 48.0732H41.8126V48.5273C41.8451 48.4625 41.9099 48.3652 41.9424 48.3327C42.0072 48.2678 42.0721 48.203 42.137 48.1705C42.2019 48.1381 42.2992 48.1056 42.3965 48.0732C42.4938 48.0408 42.5587 48.0408 42.656 48.0408C42.7533 48.0408 42.8182 48.0408 42.8831 48.0732L42.8506 48.6571C42.8182 48.6571 42.7533 48.6247 42.7209 48.6247C42.6884 48.6247 42.6236 48.6247 42.5911 48.6247C42.3316 48.6247 42.137 48.6895 41.9748 48.8517C41.8451 49.0139 41.7477 49.241 41.7477 49.5329V50.9602H41.1963V48.0732H41.2612Z" fill="#231F20"/>
<path fill-rule="evenodd" clip-rule="evenodd" d="M43.4994 46.7433C43.4021 46.8406 43.3697 46.9379 43.3697 47.0352C43.3697 47.165 43.4021 47.2623 43.4994 47.3272C43.5968 47.4245 43.6941 47.4569 43.7914 47.4569C43.9211 47.4569 44.0185 47.392 44.0833 47.3272C44.1806 47.2298 44.2131 47.1325 44.2131 47.0352C44.2131 46.9055 44.1482 46.8082 44.0833 46.7433C43.986 46.646 43.8887 46.6135 43.7914 46.6135C43.6616 46.6135 43.5643 46.6784 43.4994 46.7433ZM44.0185 48.0732H43.467V50.9278H44.0185V48.0732Z" fill="#231F20"/>
<path fill-rule="evenodd" clip-rule="evenodd" d="M44.8294 48.9165C44.7321 49.0787 44.6996 49.3058 44.6996 49.5004C44.6996 49.7275 44.7321 49.9221 44.8294 50.0843C44.8943 50.2789 45.024 50.4411 45.1538 50.5709C45.2835 50.7006 45.4457 50.8304 45.6403 50.8953C45.8025 50.9926 45.9972 51.025 46.2242 51.025C46.4189 51.025 46.6135 50.9601 46.8081 50.8953C47.0027 50.7979 47.1649 50.7006 47.2947 50.5709C47.4244 50.4411 47.5542 50.2789 47.6191 50.0843C47.7164 49.9221 47.7488 49.695 47.7488 49.5004C47.7488 49.3058 47.6839 49.1112 47.6191 48.9165C47.5542 48.7219 47.4244 48.5597 47.2947 48.43C47.1649 48.3002 47.0027 48.1705 46.8081 48.1056C46.6459 48.0083 46.4513 47.9758 46.2242 47.9758C46.0296 47.9758 45.835 48.0407 45.6403 48.1056C45.4457 48.1705 45.2835 48.3002 45.1538 48.43C45.024 48.5597 44.8943 48.7219 44.8294 48.9165ZM45.3484 49.8897C45.316 49.7924 45.2835 49.6302 45.2835 49.5004C45.2835 49.3707 45.316 49.2409 45.3484 49.1112C45.4133 48.9814 45.4782 48.8841 45.543 48.7868L45.543 48.7868C45.6079 48.7219 45.7052 48.657 45.835 48.5922C45.9323 48.5597 46.0945 48.5273 46.2242 48.5273C46.354 48.5273 46.4837 48.5273 46.6135 48.5922C46.7108 48.6246 46.8406 48.6895 46.9054 48.7868C47.0027 48.8841 47.0676 48.9814 47.1001 49.1112C47.1325 49.2085 47.1649 49.3707 47.1649 49.5004C47.1649 49.6302 47.1325 49.7599 47.1001 49.8897L47.1001 49.8897C47.0352 50.0194 46.9703 50.1167 46.9054 50.2141C46.8406 50.2789 46.7432 50.3438 46.6135 50.4087C46.5162 50.4411 46.354 50.4736 46.2242 50.4736C46.0945 50.4736 45.9647 50.4736 45.835 50.4087C45.7377 50.3762 45.6079 50.3114 45.543 50.2141C45.4457 50.1167 45.3808 50.0194 45.3484 49.8897Z" fill="#231F20"/>
<path d="M50.3114 46.6459H50.8953V50.9601H50.3114V46.6459Z" fill="#231F20"/>
<path d="M51.836 48.0732H52.3874V48.5273C52.4523 48.3652 52.582 48.2354 52.7442 48.1705C52.9064 48.0732 53.1011 48.0408 53.3281 48.0408C53.4579 48.0408 53.5876 48.0732 53.7174 48.1056C53.8471 48.1381 53.9444 48.203 54.0418 48.3003C54.1391 48.3976 54.2039 48.4949 54.2688 48.6571C54.3337 48.7868 54.3661 48.949 54.3661 49.1437V50.9926H53.8147V49.3059C53.8147 49.1761 53.7822 49.0464 53.7498 48.949C53.7174 48.8517 53.6525 48.7868 53.6201 48.722C53.5552 48.6571 53.4903 48.6247 53.4254 48.5922C53.3606 48.5598 53.2632 48.5598 53.1659 48.5598C53.0686 48.5598 52.9389 48.5922 52.8415 48.6247C52.7442 48.6571 52.6469 48.722 52.582 48.7868C52.5172 48.8517 52.4523 48.9815 52.4199 49.0788C52.3874 49.2085 52.355 49.3383 52.355 49.5005V50.9926H51.8035V48.0732H51.836Z" fill="#231F20"/>
<path d="M56.7341 48.7868C56.6692 48.7219 56.6044 48.6246 56.507 48.5922C56.4097 48.5273 56.28 48.4948 56.1502 48.4948C56.0205 48.4948 55.9232 48.5273 55.8258 48.5922C55.7285 48.657 55.6961 48.7219 55.6961 48.8192C55.6961 48.9165 55.7285 48.9814 55.7934 49.0138C55.8583 49.0787 55.9232 49.1112 55.988 49.1436C56.0529 49.176 56.1502 49.2085 56.2151 49.2085C56.3124 49.2085 56.3773 49.2409 56.4422 49.2409C56.5719 49.2734 56.6692 49.3058 56.7665 49.3382C56.8639 49.3707 56.9612 49.4355 57.0261 49.5004C57.0909 49.5653 57.1558 49.6302 57.1882 49.7275C57.2207 49.8248 57.2531 49.9221 57.2531 50.0519C57.2531 50.2141 57.2207 50.3438 57.1558 50.4736C57.0909 50.6033 56.9936 50.6682 56.8963 50.7655C56.799 50.8304 56.6692 50.8953 56.5395 50.9277C56.4097 50.9601 56.2475 50.9601 56.1178 50.9601C55.8907 50.9601 55.6637 50.9277 55.5015 50.8628C55.3068 50.7979 55.1771 50.6682 55.0149 50.4736L55.4366 50.1492C55.5339 50.2465 55.6312 50.3114 55.7285 50.3762C55.8258 50.4411 55.9556 50.4736 56.1178 50.4736C56.1827 50.4736 56.2475 50.4736 56.3124 50.4411C56.3773 50.4411 56.4422 50.4087 56.507 50.3762C56.5719 50.3438 56.6044 50.3114 56.6368 50.2465C56.6692 50.2141 56.7017 50.1492 56.7017 50.0843C56.7017 50.0194 56.6692 49.9221 56.6368 49.8897C56.5719 49.8248 56.5395 49.7924 56.4422 49.7599C56.3773 49.7275 56.3124 49.695 56.2151 49.695C56.1502 49.6626 56.0529 49.6626 56.0205 49.6626C55.8907 49.6302 55.7934 49.5977 55.6961 49.5653C55.5988 49.5329 55.5015 49.468 55.4041 49.4355C55.3393 49.3707 55.2744 49.3058 55.2095 49.2085C55.1771 49.1112 55.1446 49.0138 55.1446 48.8517C55.1446 48.6895 55.1771 48.5597 55.242 48.4624C55.3068 48.3651 55.3717 48.2678 55.5015 48.2029C55.5988 48.138 55.7285 48.0731 55.8583 48.0407C55.988 48.0083 56.1178 47.9758 56.2475 47.9758C56.4422 47.9758 56.6368 48.0083 56.799 48.0731C56.9612 48.138 57.1234 48.2678 57.2207 48.43L56.7341 48.7868Z" fill="#231F20"/>
<path d="M59.5238 48.5597H58.7453V49.8572C58.7453 49.9221 58.7453 50.0194 58.7453 50.0843C58.7453 50.1492 58.7777 50.2465 58.7777 50.3113C58.8102 50.3762 58.8426 50.4087 58.9075 50.4735C58.9723 50.506 59.0372 50.5384 59.1345 50.5384C59.1994 50.5384 59.2643 50.5384 59.3292 50.506C59.394 50.506 59.4589 50.4735 59.5238 50.4411V50.9277C59.4589 50.9601 59.3616 50.9925 59.2643 50.9925C59.167 50.9925 59.0697 51.025 59.0372 51.025C58.8426 51.025 58.6804 50.9925 58.5507 50.9277C58.4209 50.8628 58.356 50.7979 58.2912 50.7006C58.2263 50.6033 58.1938 50.506 58.1938 50.3762C58.1938 50.2465 58.1938 50.1492 58.1938 50.0194V48.5273H57.5775V48.0407H58.1938V47.2297H58.7453V48.0407H59.5238V48.5597Z" fill="#231F20"/>
<path fill-rule="evenodd" clip-rule="evenodd" d="M60.1726 46.7433C60.0753 46.8406 60.0428 46.9379 60.0428 47.0352C60.0428 47.165 60.0753 47.2623 60.1726 47.3272C60.2699 47.4245 60.3672 47.4569 60.4645 47.4569C60.5943 47.4569 60.6916 47.392 60.7565 47.3272C60.8538 47.2298 60.8862 47.1325 60.8862 47.0352C60.8862 46.9055 60.8214 46.8082 60.7565 46.7433C60.6592 46.646 60.5619 46.6135 60.4645 46.6135C60.3348 46.6135 60.2699 46.646 60.1726 46.7433ZM60.724 48.0732H60.1726V50.9278H60.724V48.0732Z" fill="#231F20"/>
<path d="M63.1569 48.5597H62.3783V49.8572C62.3783 49.9221 62.3783 50.0194 62.3783 50.0843C62.3783 50.1492 62.4108 50.2465 62.4108 50.3113C62.4432 50.3762 62.4757 50.4087 62.5405 50.4735C62.6054 50.506 62.6703 50.5384 62.7676 50.5384C62.8325 50.5384 62.8973 50.5384 62.9622 50.506C63.0271 50.506 63.092 50.4735 63.1569 50.4411V50.9277C63.092 50.9601 62.9947 50.9925 62.8973 50.9925C62.8 50.9925 62.7027 51.025 62.6703 51.025C62.4757 51.025 62.3135 50.9925 62.1837 50.9277C62.054 50.8628 61.9891 50.7979 61.9242 50.7006C61.8593 50.6033 61.8269 50.506 61.8269 50.3762C61.8269 50.2465 61.8269 50.1492 61.8269 50.0194V48.5273H61.2106V48.0407H61.8269V47.2297H62.3783V48.0407H63.1569V48.5597Z" fill="#231F20"/>
<path d="M66.3034 50.9602H65.7519V50.5061C65.687 50.6683 65.5573 50.798 65.3951 50.8629C65.2329 50.9602 65.0383 50.9926 64.8112 50.9926C64.6815 50.9926 64.5517 50.9602 64.422 50.9278C64.2922 50.8953 64.1949 50.8304 64.0976 50.7331C64.0003 50.6358 63.9354 50.5385 63.8705 50.3763C63.8056 50.2466 63.7732 50.0844 63.7732 49.8897V48.0408H64.3246V49.7276C64.3246 49.8573 64.3571 49.9871 64.3895 50.0844C64.422 50.1817 64.4868 50.2466 64.5193 50.3114C64.5841 50.3763 64.649 50.4087 64.7139 50.4412C64.7788 50.4736 64.8761 50.4736 64.9734 50.4736C65.0707 50.4736 65.2005 50.4412 65.2978 50.4087C65.3951 50.3763 65.4924 50.3114 65.5573 50.2466C65.6222 50.1817 65.687 50.0519 65.7195 49.9546C65.7519 49.8249 65.7844 49.6951 65.7844 49.5329V48.0408H66.3358V50.9602H66.3034Z" fill="#231F20"/>
<path d="M68.7362 48.5597H67.9577V49.8572C67.9577 49.9221 67.9577 50.0194 67.9577 50.0843C67.9577 50.1492 67.9901 50.2465 67.9901 50.3113C68.0226 50.3762 68.055 50.4087 68.1199 50.4735C68.1848 50.506 68.2496 50.5384 68.3469 50.5384C68.4118 50.5384 68.4767 50.5384 68.5416 50.506C68.6064 50.506 68.6713 50.4735 68.7362 50.4411V50.9277C68.6713 50.9601 68.574 50.9925 68.4767 50.9925C68.3794 50.9925 68.2821 51.025 68.2496 51.025C68.055 51.025 67.8928 50.9925 67.7631 50.9277C67.6333 50.8628 67.5684 50.7979 67.5036 50.7006C67.4387 50.6033 67.4062 50.506 67.4062 50.3762C67.4062 50.2465 67.4062 50.1492 67.4062 50.0194V48.5273H66.7899V48.0407H67.4062V47.2297H67.9577V48.0407H68.7362V48.5597Z" fill="#231F20"/>
<path fill-rule="evenodd" clip-rule="evenodd" d="M69.8391 50.052C69.7743 49.9222 69.7418 49.8249 69.7418 49.6951V49.6627H72.1098V49.4681C72.1098 49.2734 72.1098 49.1113 72.0449 48.9166C71.98 48.722 71.8827 48.5598 71.7854 48.4301C71.6881 48.2679 71.5259 48.1705 71.3637 48.0732C71.1691 47.9759 70.9745 47.9435 70.715 47.9435C70.5203 47.9435 70.3257 48.0084 70.1311 48.0732C69.9689 48.1705 69.8067 48.2679 69.6769 48.3976C69.5148 48.5274 69.4174 48.6896 69.3526 48.8842C69.2877 49.0464 69.2552 49.241 69.2552 49.4681C69.2552 49.6627 69.2877 49.8573 69.3526 50.052C69.4174 50.2466 69.5148 50.4088 69.6445 50.5385C69.7743 50.6683 69.904 50.798 70.0986 50.8629C70.2933 50.9602 70.4879 50.9927 70.715 50.9927C71.2664 50.9927 71.6881 50.798 71.98 50.4088L71.5583 50.0844C71.5248 50.1179 71.4935 50.1514 71.4632 50.1838C71.3762 50.2769 71.2978 50.3607 71.2015 50.4088C71.0718 50.5061 70.9096 50.5385 70.7474 50.5385C70.6399 50.5385 70.5547 50.5163 70.4548 50.4902C70.4341 50.4848 70.4128 50.4792 70.3906 50.4737C70.2608 50.4412 70.1635 50.3763 70.0662 50.3115C69.9689 50.2466 69.904 50.1493 69.8391 50.052L69.8391 50.052ZM71.3962 48.9491C71.4286 49.0464 71.461 49.1437 71.461 49.2734H69.7094C69.7094 49.1761 69.7418 49.0788 69.7743 48.9815C69.8391 48.8842 69.904 48.7869 69.9689 48.722L70.2608 48.5274C70.3581 48.4949 70.4879 48.4625 70.6176 48.4625C70.7474 48.4625 70.8772 48.4949 70.9745 48.5274C71.0718 48.5598 71.1691 48.6247 71.234 48.6896C71.2988 48.7544 71.3637 48.8517 71.3962 48.9491Z" fill="#231F20"/>
<path d="M28.3833 55.1122H27.767V54.6256H28.3833V53.9769C28.3833 53.5876 28.4482 53.2957 28.6104 53.1335C28.7725 52.9389 28.9996 52.8416 29.3564 52.8416C29.4213 52.8416 29.4862 52.8416 29.5511 52.8416C29.6159 52.8416 29.6808 52.8416 29.7781 52.874L29.7132 53.3606C29.6484 53.3281 29.6159 53.3281 29.5511 53.3281C29.5186 53.3281 29.4537 53.3281 29.3889 53.3281C29.2916 53.3281 29.1942 53.3281 29.1618 53.3606C29.0969 53.393 29.0645 53.4254 29.0321 53.4903C28.9996 53.5552 28.9672 53.6201 28.9672 53.6849C28.9672 53.7498 28.9672 53.8471 28.9672 53.9444V54.5932H29.6159V55.0798H28.9672V57.4802H28.4157V55.1122H28.3833Z" fill="#231F20"/>
<path fill-rule="evenodd" clip-rule="evenodd" d="M30.0701 55.5015C29.9727 55.6637 29.9403 55.8908 29.9403 56.0854C29.9403 56.28 29.9727 56.4746 30.0701 56.6693C30.1349 56.8639 30.2647 57.0261 30.3944 57.1558C30.5242 57.2856 30.6864 57.4153 30.881 57.4802C31.0432 57.5775 31.2378 57.61 31.4649 57.61C31.6595 57.61 31.8542 57.5451 32.0488 57.4802C32.2434 57.3829 32.4056 57.2856 32.5354 57.1558C32.6651 57.0261 32.7949 56.8639 32.8597 56.6693C32.957 56.5071 32.9895 56.28 32.9895 56.0854C32.9895 55.8908 32.9246 55.6961 32.8597 55.5015C32.7949 55.3069 32.6651 55.1447 32.5354 55.0149C32.4056 54.8852 32.2434 54.7554 32.0488 54.6905C31.8866 54.5932 31.692 54.5608 31.4649 54.5608C31.2703 54.5608 31.0756 54.6257 30.881 54.6905C30.6864 54.7554 30.5242 54.8852 30.3944 55.0149C30.2647 55.1447 30.1349 55.3069 30.0701 55.5015ZM30.5566 56.4746C30.5242 56.3773 30.4918 56.2151 30.4918 56.0854C30.4918 55.9232 30.5242 55.7934 30.5566 55.6961C30.6215 55.5664 30.6864 55.4691 30.7513 55.3717L30.7513 55.3717C30.8161 55.3069 30.9134 55.242 31.0432 55.1771C31.1405 55.1447 31.3027 55.1122 31.4325 55.1122C31.5622 55.1122 31.692 55.1122 31.8217 55.1771C31.919 55.2096 32.0488 55.2744 32.1137 55.3717C32.211 55.4691 32.2758 55.5664 32.3083 55.6961C32.3407 55.7934 32.3732 55.9556 32.3732 56.0854C32.3732 56.2151 32.3407 56.3449 32.3083 56.4746L32.3083 56.4746C32.2434 56.6044 32.1785 56.7017 32.1137 56.799C32.0488 56.8639 31.9515 56.9288 31.8217 56.9936C31.7244 57.0261 31.5622 57.0585 31.4325 57.0585C31.3027 57.0585 31.173 57.0585 31.0432 56.9936C30.9459 56.9612 30.8161 56.8963 30.7513 56.799C30.6539 56.7017 30.5891 56.6044 30.5566 56.4746Z" fill="#231F20"/>
<path d="M33.6707 54.6257H34.2222V55.0798C34.2546 55.015 34.3195 54.9176 34.3519 54.8852C34.4168 54.8203 34.4817 54.7555 34.5465 54.723C34.6114 54.6906 34.7087 54.6581 34.806 54.6257C34.9034 54.5933 34.9682 54.5933 35.0655 54.5933C35.1629 54.5933 35.2277 54.5933 35.2926 54.6257L35.2602 55.2096C35.2277 55.2096 35.1629 55.1771 35.1304 55.1771C35.098 55.1771 35.0331 55.1771 35.0007 55.1771C34.7412 55.1771 34.5465 55.242 34.3843 55.4042C34.2546 55.5664 34.1573 55.7935 34.1573 56.0854V57.5127H33.6058V54.6257H33.6707Z" fill="#231F20"/>
<path d="M40.7746 54.1391C40.6449 53.9769 40.5151 53.8471 40.3205 53.7822C40.1259 53.6849 39.9312 53.6525 39.7366 53.6525C39.5095 53.6525 39.2825 53.6849 39.0878 53.7822C38.8932 53.8796 38.731 54.0093 38.6013 54.1391C38.4715 54.2688 38.3418 54.4959 38.2769 54.6905C38.212 54.9176 38.1471 55.1446 38.1471 55.3717C38.1471 55.5988 38.1796 55.8258 38.2445 56.0205C38.3093 56.2151 38.4066 56.4097 38.5688 56.5395C38.6986 56.7017 38.8608 56.799 39.0554 56.8963C39.25 56.9936 39.4771 57.026 39.7366 57.026C39.9961 57.026 40.1907 56.9612 40.3854 56.8639C40.58 56.7665 40.7422 56.6368 40.8719 56.4422L41.3585 56.799C41.3261 56.8314 41.2612 56.8963 41.1963 56.9936C41.1314 57.0909 41.0017 57.1558 40.8719 57.2531C40.7422 57.3504 40.58 57.4153 40.3854 57.4802C40.1907 57.5451 39.9961 57.5775 39.7366 57.5775C39.4122 57.5775 39.0878 57.5126 38.8283 57.3829C38.5688 57.2531 38.3093 57.0909 38.1471 56.8639C37.9525 56.6692 37.8228 56.4097 37.693 56.1502C37.5957 55.8907 37.5308 55.6312 37.5308 55.3393C37.5308 55.0149 37.5957 54.6905 37.693 54.431C37.7903 54.1391 37.9525 53.912 38.1471 53.7174C38.3418 53.5227 38.5688 53.3605 38.8608 53.2308C39.1203 53.1335 39.4447 53.0686 39.769 53.0686C40.061 53.0686 40.3205 53.1335 40.6124 53.2308C40.8719 53.3281 41.099 53.5227 41.2936 53.7174L40.7746 54.1391Z" fill="#231F20"/>
<path fill-rule="evenodd" clip-rule="evenodd" d="M42.4938 54.6581C42.2992 54.723 42.137 54.8527 41.9748 54.9825L41.9748 54.9825L42.2668 55.3393C42.3316 55.2744 42.3641 55.242 42.4289 55.2096C42.4614 55.1771 42.5263 55.1447 42.5911 55.1122C42.6236 55.096 42.6641 55.0879 42.7047 55.0798C42.7452 55.0717 42.7858 55.0636 42.8182 55.0474C42.8831 55.0149 42.9804 55.0149 43.0777 55.0149C43.175 55.0149 43.2723 55.0474 43.3696 55.0798C43.467 55.1122 43.5318 55.1447 43.5967 55.2096C43.6616 55.2744 43.694 55.3393 43.7265 55.4042C43.7589 55.5015 43.7589 55.5664 43.7589 55.6312V55.761H43.3696C43.1426 55.761 42.948 55.7934 42.7533 55.8259C42.5911 55.8583 42.3965 55.9232 42.2668 55.9881C42.137 56.0529 42.0397 56.1503 41.9424 56.28C41.8451 56.3773 41.8126 56.5395 41.8126 56.7341C41.8126 56.8639 41.8126 56.9936 41.8775 57.091C41.9424 57.1883 42.0073 57.2856 42.1046 57.3505C42.2019 57.4153 42.2992 57.4802 42.4289 57.5127C42.5587 57.5451 42.6884 57.5775 42.8182 57.5775C43.0453 57.5775 43.2399 57.5127 43.4021 57.4478C43.5643 57.3829 43.694 57.2531 43.8238 57.0585C43.8238 57.1234 43.8319 57.1964 43.84 57.2694C43.8481 57.3424 43.8562 57.4153 43.8562 57.4802H44.3428C44.3104 57.4153 44.3104 57.3505 44.3104 57.2531V56.9612V55.5015C44.3104 55.394 44.2881 55.3088 44.262 55.2089C44.2566 55.1882 44.251 55.1669 44.2455 55.1447C44.1806 55.0474 44.1157 54.95 44.0184 54.8527C43.9211 54.7554 43.8238 54.6905 43.6616 54.6257C43.4994 54.5932 43.3048 54.5608 43.1101 54.5608C42.8831 54.5608 42.6884 54.5932 42.4938 54.6581ZM43.1101 56.1503C43.2399 56.1178 43.3696 56.1178 43.4994 56.1178H43.8238V56.3449C43.8238 56.4422 43.8238 56.5395 43.7913 56.6368C43.7589 56.7341 43.7265 56.8315 43.6616 56.8963C43.5967 56.9612 43.4994 57.0261 43.4021 57.091C43.3048 57.1234 43.175 57.1558 43.0128 57.1558C42.8182 57.1558 42.656 57.1234 42.5587 57.0585C42.4614 56.9936 42.3965 56.8639 42.3965 56.7017C42.3965 56.5719 42.4289 56.4746 42.4938 56.4098C42.5587 56.3449 42.656 56.28 42.7533 56.2476C42.8506 56.1827 42.9804 56.1503 43.1101 56.1503Z" fill="#231F20"/>
<path d="M45.1213 54.6257H45.6728V55.0798C45.7376 54.9176 45.8674 54.7879 46.0296 54.723C46.1918 54.6257 46.3864 54.5933 46.6135 54.5933C46.7432 54.5933 46.873 54.6257 47.0027 54.6581C47.1325 54.6906 47.2298 54.7555 47.3271 54.8528C47.4244 54.9501 47.4893 55.0474 47.5542 55.2096C47.619 55.3393 47.6515 55.5015 47.6515 55.6962V57.5451H47.1V55.8583C47.1 55.7286 47.0676 55.5988 47.0352 55.5015C47.0027 55.4042 46.9378 55.3393 46.9054 55.2745C46.8405 55.2096 46.7756 55.1771 46.7108 55.1447C46.6459 55.1123 46.5486 55.1123 46.4513 55.1123C46.354 55.1123 46.2242 55.1447 46.1269 55.1771C46.0296 55.2096 45.9323 55.2745 45.8674 55.3393C45.8025 55.4042 45.7376 55.534 45.7052 55.6313C45.6728 55.761 45.6403 55.8908 45.6403 56.053V57.5451H45.0889V54.6257H45.1213Z" fill="#231F20"/>
<path d="M50.506 55.4042C50.4087 55.3069 50.3114 55.2096 50.1816 55.1771C50.0843 55.1122 49.9546 55.0798 49.7924 55.0798C49.6302 55.0798 49.5004 55.1122 49.4031 55.1771C49.3058 55.242 49.2085 55.3069 49.1112 55.4042C49.0463 55.5015 48.9814 55.5988 48.949 55.7286C48.9166 55.8583 48.8841 55.9881 48.8841 56.1178C48.8841 56.2476 48.9166 56.3773 48.949 56.5071C48.9814 56.6368 49.0463 56.7341 49.1436 56.8315C49.2085 56.9288 49.3058 56.9936 49.4356 57.0261C49.5329 57.091 49.6626 57.091 49.8248 57.091C49.987 57.091 50.1168 57.0585 50.2141 56.9936C50.3114 56.9288 50.4087 56.8639 50.506 56.7666L50.8953 57.1558C50.7655 57.318 50.6033 57.4153 50.4087 57.4802C50.2141 57.5451 50.0194 57.5775 49.8248 57.5775C49.5978 57.5775 49.4031 57.5451 49.2085 57.4802C49.0139 57.4153 48.8517 57.318 48.7219 57.1883C48.5922 57.0585 48.4949 56.8963 48.3975 56.7017C48.3327 56.5071 48.3002 56.3124 48.3002 56.0854C48.3002 55.8583 48.3327 55.6637 48.3975 55.4691C48.4624 55.2744 48.5597 55.1122 48.6895 54.9825C48.8192 54.8527 48.9814 54.7554 49.1761 54.6581C49.3707 54.5932 49.5653 54.5608 49.7924 54.5608C49.987 54.5608 50.2141 54.5932 50.4087 54.6581C50.6033 54.723 50.7655 54.8527 50.8953 55.0149L50.506 55.4042Z" fill="#231F20"/>
<path fill-rule="evenodd" clip-rule="evenodd" d="M51.8684 56.6368C51.8036 56.507 51.7711 56.4097 51.7711 56.28V56.2475H54.1391V56.0529C54.1391 55.8583 54.1391 55.6961 54.0742 55.5015C54.0093 55.3068 53.912 55.1446 53.8147 55.0149C53.7174 54.8527 53.5552 54.7554 53.393 54.6581C53.1984 54.5608 53.0038 54.5283 52.7443 54.5283C52.5496 54.5283 52.355 54.5932 52.1604 54.6581C51.9982 54.7554 51.836 54.8527 51.7062 54.9825C51.5441 55.1122 51.4467 55.2744 51.3819 55.469C51.317 55.6312 51.2845 55.8583 51.2845 56.0529C51.2845 56.2475 51.317 56.4422 51.3819 56.6368C51.4467 56.8314 51.5441 56.9936 51.6738 57.1234C51.8036 57.2531 51.9333 57.3829 52.1279 57.4477C52.3226 57.5451 52.5172 57.5775 52.7443 57.5775C53.2957 57.5775 53.7174 57.3829 54.0093 56.9936L53.5876 56.6692C53.5541 56.7028 53.5228 56.7363 53.4925 56.7687C53.4054 56.8617 53.3271 56.9455 53.2308 56.9936C53.1011 57.0909 52.9389 57.1234 52.7767 57.1234C52.6692 57.1234 52.584 57.1011 52.4841 57.075C52.4634 57.0696 52.4421 57.0641 52.4199 57.0585C52.2901 57.026 52.1928 56.9612 52.0955 56.8963C51.9982 56.8314 51.9333 56.7341 51.8684 56.6368ZM53.4255 55.5015C53.4579 55.5988 53.4903 55.6961 53.4903 55.8258H51.7387C51.7387 55.7285 51.7711 55.6312 51.8036 55.5339C51.8684 55.4366 51.9333 55.3393 51.9982 55.2744L52.2901 55.0798C52.3874 55.0473 52.5172 55.0149 52.6469 55.0149C52.7767 55.0149 52.9064 55.0473 53.0038 55.0798C53.1011 55.1122 53.1984 55.1771 53.2633 55.242C53.3281 55.3068 53.393 55.4041 53.4255 55.5015Z" fill="#231F20"/>
<path d="M54.7554 54.6257H55.3069V55.0798C55.3393 55.015 55.4042 54.9176 55.4366 54.8852C55.5015 54.8203 55.5664 54.7555 55.6313 54.723C55.6961 54.6906 55.7934 54.6581 55.8908 54.6257C55.9881 54.5933 56.053 54.5933 56.1503 54.5933C56.2476 54.5933 56.3125 54.5933 56.3773 54.6257L56.3449 55.2096C56.3125 55.2096 56.2476 55.1771 56.2151 55.1771C56.1827 55.1771 56.1178 55.1771 56.0854 55.1771C55.8259 55.1771 55.6313 55.242 55.4691 55.4042C55.3393 55.5664 55.242 55.7935 55.242 56.0854V57.5127H54.6906V54.6257H54.7554Z" fill="#231F20"/>
<path fill-rule="evenodd" clip-rule="evenodd" d="M60.3672 53.2308H58.9075V57.5127H59.4914V55.6313H60.1401L61.243 57.5127H61.9566L60.724 55.5664C60.8862 55.5664 61.0484 55.5015 61.1781 55.4366C61.3079 55.3717 61.4052 55.2744 61.5025 55.1771C61.5274 55.1273 61.5572 55.0822 61.5861 55.0382C61.6326 54.9678 61.6772 54.9002 61.6971 54.8203C61.7296 54.6905 61.762 54.5608 61.762 54.431C61.762 54.3013 61.7296 54.1391 61.6971 54.0093L61.6971 54.0093C61.6323 53.8796 61.5674 53.7498 61.4701 53.6201C61.3728 53.4903 61.2106 53.393 61.0484 53.3281C60.8538 53.2633 60.6267 53.2308 60.3672 53.2308ZM60.2374 55.1122H59.4589V53.7498H60.2374C60.3347 53.7498 60.4645 53.7498 60.5618 53.7823C60.6267 53.7823 60.6916 53.8111 60.7564 53.8399C60.7889 53.8544 60.8213 53.8688 60.8538 53.8796C60.9186 53.912 60.9835 53.9769 61.0484 54.0742C61.0808 54.1715 61.1133 54.3013 61.1133 54.431C61.1133 54.5932 61.1133 54.6905 61.0484 54.7879C61.0159 54.8527 60.9511 54.95 60.8538 54.9825L60.5618 55.0798C60.4645 55.1122 60.3347 55.1122 60.2374 55.1122Z" fill="#231F20"/>
<path fill-rule="evenodd" clip-rule="evenodd" d="M62.8974 56.6368C62.8325 56.507 62.8 56.4097 62.8 56.28V56.2475H65.168V56.0529C65.168 55.8583 65.168 55.6961 65.1031 55.5015C65.0383 55.3068 64.941 55.1446 64.8436 55.0149C64.7463 54.8527 64.5841 54.7554 64.4219 54.6581C64.2273 54.5608 64.0327 54.5283 63.7732 54.5283C63.5786 54.5283 63.3839 54.5932 63.1893 54.6581C63.0271 54.7554 62.8649 54.8527 62.7352 54.9825C62.573 55.1122 62.4757 55.2744 62.4108 55.469C62.3459 55.6312 62.3135 55.8583 62.3135 56.0529C62.3135 56.2475 62.3459 56.4422 62.4108 56.6368C62.4757 56.8314 62.573 56.9936 62.7027 57.1234C62.8325 57.2531 62.9622 57.3829 63.1569 57.4477C63.3515 57.5451 63.5461 57.5775 63.7732 57.5775C64.3246 57.5775 64.7463 57.3829 65.0383 56.9936L64.6166 56.6692C64.5831 56.7028 64.5517 56.7363 64.5214 56.7687C64.4344 56.8617 64.356 56.9455 64.2598 56.9936C64.13 57.0909 63.9678 57.1234 63.8056 57.1234C63.6981 57.1234 63.6129 57.1011 63.5131 57.075C63.4924 57.0696 63.4711 57.0641 63.4488 57.0585C63.3191 57.026 63.2217 56.9612 63.1244 56.8963C63.0271 56.8314 62.9622 56.7341 62.8974 56.6368ZM64.4544 55.5015C64.4868 55.5988 64.5193 55.6961 64.5193 55.8258H62.7676C62.7676 55.7285 62.8 55.6312 62.8325 55.5339C62.8974 55.4366 62.9622 55.3393 63.0271 55.2744L63.3191 55.0798C63.4164 55.0473 63.5461 55.0149 63.6759 55.0149C63.8056 55.0149 63.9354 55.0473 64.0327 55.0798C64.13 55.1122 64.2273 55.1771 64.2922 55.242C64.3571 55.3068 64.422 55.4041 64.4544 55.5015Z" fill="#231F20"/>
<path d="M67.2765 55.3717C67.2116 55.3069 67.1467 55.2096 67.0494 55.1771C66.9521 55.1122 66.8223 55.0798 66.6926 55.0798C66.5628 55.0798 66.4655 55.1122 66.3682 55.1771C66.2709 55.242 66.2385 55.3069 66.2385 55.4042C66.2385 55.5015 66.2709 55.5664 66.3358 55.5988C66.4006 55.6637 66.4655 55.6961 66.5304 55.7286C66.5953 55.761 66.6926 55.7934 66.7575 55.7934C66.8548 55.7934 66.9197 55.8259 66.9845 55.8259C67.1143 55.8583 67.2116 55.8908 67.3089 55.9232C67.4062 55.9556 67.5035 56.0205 67.5684 56.0854C67.6333 56.1503 67.6982 56.2151 67.7306 56.3124C67.763 56.4098 67.7955 56.5071 67.7955 56.6368C67.7955 56.799 67.763 56.9288 67.6982 57.0585C67.6333 57.1883 67.536 57.2531 67.4387 57.3505C67.3413 57.4153 67.2116 57.4802 67.0818 57.5127C66.9521 57.5451 66.7899 57.5451 66.6601 57.5451C66.4331 57.5451 66.206 57.5127 66.0438 57.4478C65.8492 57.3829 65.7194 57.2531 65.5573 57.0585L65.9789 56.7341C66.0763 56.8315 66.1736 56.8963 66.2709 56.9612C66.3682 57.0261 66.498 57.0585 66.6601 57.0585C66.725 57.0585 66.7899 57.0585 66.8548 57.0261C66.9197 57.0261 66.9845 56.9936 67.0494 56.9612C67.1143 56.9288 67.1467 56.8963 67.1792 56.8315C67.2116 56.799 67.244 56.7341 67.244 56.6693C67.244 56.6044 67.2116 56.5071 67.1792 56.4746C67.1143 56.4098 67.0818 56.3773 66.9845 56.3449C66.9197 56.3124 66.8548 56.28 66.7575 56.28C66.6926 56.2476 66.5953 56.2476 66.5628 56.2476C66.4331 56.2151 66.3358 56.1827 66.2385 56.1503C66.1411 56.1178 66.0438 56.0529 65.9465 56.0205C65.8816 55.9556 65.8168 55.8908 65.7519 55.7934C65.7194 55.6961 65.687 55.5988 65.687 55.4366C65.687 55.2744 65.7194 55.1447 65.7843 55.0474C65.8492 54.95 65.9141 54.8527 66.0438 54.7879C66.1411 54.723 66.2709 54.6581 66.4006 54.6257C66.5304 54.5932 66.6601 54.5608 66.7899 54.5608C66.9845 54.5608 67.1792 54.5932 67.3413 54.6581C67.5035 54.723 67.6657 54.8527 67.763 55.0149L67.2765 55.3717Z" fill="#231F20"/>
<path fill-rule="evenodd" clip-rule="evenodd" d="M68.9308 56.6368C68.8659 56.507 68.8335 56.4097 68.8335 56.28V56.2475H71.2015V56.0529C71.2015 55.8583 71.2015 55.6961 71.1366 55.5015C71.0717 55.3068 70.9744 55.1446 70.8771 55.0149C70.7798 54.8527 70.6176 54.7554 70.4554 54.6581C70.2608 54.5608 70.0661 54.5283 69.8066 54.5283C69.612 54.5283 69.4174 54.5932 69.2228 54.6581C69.0606 54.7554 68.8984 54.8527 68.7686 54.9825C68.6064 55.1122 68.5091 55.2744 68.4442 55.469C68.3794 55.6312 68.3469 55.8583 68.3469 56.0529C68.3469 56.2475 68.3794 56.4422 68.4442 56.6368C68.5091 56.8314 68.6064 56.9936 68.7362 57.1234C68.8659 57.2531 68.9957 57.3829 69.1903 57.4477C69.3849 57.5451 69.5796 57.5775 69.8066 57.5775C70.3581 57.5775 70.7798 57.3829 71.0717 56.9936L70.65 56.6692C70.6165 56.7028 70.5851 56.7363 70.5548 56.7687C70.4678 56.8617 70.3894 56.9455 70.2932 56.9936C70.1635 57.0909 70.0013 57.1234 69.8391 57.1234C69.7316 57.1234 69.6464 57.1011 69.5465 57.075C69.5258 57.0696 69.5045 57.0641 69.4823 57.0585C69.3525 57.026 69.2552 56.9612 69.1579 56.8963C69.0606 56.8314 68.9957 56.7341 68.9308 56.6368ZM70.4878 55.5015C70.5203 55.5988 70.5527 55.6961 70.5527 55.8258H68.8011C68.8011 55.7285 68.8335 55.6312 68.8659 55.5339C68.9308 55.4366 68.9957 55.3393 69.0606 55.2744L69.3525 55.0798C69.4498 55.0473 69.5796 55.0149 69.7093 55.0149C69.8391 55.0149 69.9688 55.0473 70.0661 55.0798C70.1635 55.1122 70.2608 55.1771 70.3256 55.242C70.3905 55.3068 70.4554 55.4041 70.4878 55.5015Z" fill="#231F20"/>
<path fill-rule="evenodd" clip-rule="evenodd" d="M72.272 54.6581C72.0773 54.723 71.9151 54.8527 71.7529 54.9825L71.7529 54.9825L72.0449 55.3393C72.1098 55.2744 72.1422 55.242 72.2071 55.2096C72.2395 55.1771 72.3044 55.1447 72.3693 55.1122C72.4017 55.096 72.4423 55.0879 72.4828 55.0798C72.5234 55.0717 72.5639 55.0636 72.5963 55.0474C72.6612 55.0149 72.7585 55.0149 72.8558 55.0149C72.9532 55.0149 73.0505 55.0474 73.1478 55.0798C73.2451 55.1122 73.31 55.1447 73.3749 55.2096C73.4397 55.2744 73.4722 55.3393 73.5046 55.4042C73.537 55.5015 73.537 55.5664 73.537 55.6312V55.761H73.1478C72.9207 55.761 72.7261 55.7934 72.5315 55.8259C72.3693 55.8583 72.1746 55.9232 72.0449 55.9881C71.9151 56.0529 71.8178 56.1503 71.7205 56.28C71.6232 56.3773 71.5908 56.5395 71.5908 56.7341C71.5908 56.8639 71.5908 56.9936 71.6556 57.091C71.7205 57.1883 71.7854 57.2856 71.8827 57.3505C71.98 57.4153 72.0773 57.4802 72.2071 57.5127C72.3368 57.5451 72.4666 57.5775 72.5963 57.5775C72.8234 57.5775 73.018 57.5127 73.1802 57.4478C73.3424 57.3829 73.4722 57.2531 73.6019 57.0585C73.6019 57.1234 73.61 57.1964 73.6181 57.2694C73.6262 57.3424 73.6344 57.4153 73.6344 57.4802H74.1209C74.0885 57.4153 74.0885 57.3505 74.0885 57.2531V56.9612V55.5015C74.0885 55.394 74.0662 55.3088 74.0401 55.2089C74.0347 55.1882 74.0292 55.1669 74.0236 55.1447C73.9587 55.0474 73.8939 54.95 73.7965 54.8527C73.6992 54.7554 73.6019 54.6905 73.4397 54.6257C73.2775 54.5932 73.0829 54.5608 72.8883 54.5608C72.6612 54.5608 72.4666 54.5932 72.272 54.6581ZM72.9207 56.1503C73.0505 56.1178 73.1802 56.1178 73.31 56.1178H73.6344V56.3449C73.6344 56.4422 73.6344 56.5395 73.6019 56.6368C73.5695 56.7341 73.537 56.8315 73.4722 56.8963C73.4073 56.9612 73.31 57.0261 73.2127 57.091C73.1154 57.1234 72.9856 57.1558 72.8234 57.1558C72.6288 57.1558 72.4666 57.1234 72.3693 57.0585C72.272 56.9936 72.2071 56.8639 72.2071 56.7017C72.2071 56.5719 72.2395 56.4746 72.3044 56.4098C72.3693 56.3449 72.4666 56.28 72.5639 56.2476C72.6612 56.1827 72.791 56.1503 72.9207 56.1503Z" fill="#231F20"/>
<path d="M75.0292 54.6257H75.5806V55.0798C75.6131 55.015 75.6779 54.9176 75.7104 54.8852C75.7752 54.8203 75.8401 54.7555 75.905 54.723C75.9699 54.6906 76.0672 54.6581 76.1645 54.6257C76.2618 54.5933 76.3267 54.5933 76.424 54.5933C76.5213 54.5933 76.5862 54.5933 76.6511 54.6257L76.6186 55.2096C76.5862 55.2096 76.5213 55.1771 76.4889 55.1771C76.4564 55.1771 76.3916 55.1771 76.3591 55.1771C76.0996 55.1771 75.905 55.242 75.7428 55.4042C75.6131 55.5664 75.5157 55.7935 75.5157 56.0854V57.5127H74.9643V54.6257H75.0292Z" fill="#231F20"/>
<path d="M79.1164 55.4042C79.0191 55.3069 78.9217 55.2096 78.792 55.1771C78.6947 55.1122 78.5649 55.0798 78.4027 55.0798C78.2405 55.0798 78.1108 55.1122 78.0135 55.1771C77.9162 55.242 77.8188 55.3069 77.7215 55.4042C77.6567 55.5015 77.5918 55.5988 77.5593 55.7286C77.5269 55.8583 77.4945 55.9881 77.4945 56.1178C77.4945 56.2476 77.5269 56.3773 77.5593 56.5071C77.5918 56.6368 77.6567 56.7341 77.754 56.8315C77.8188 56.9288 77.9162 56.9936 78.0459 57.0261C78.1432 57.091 78.273 57.091 78.4352 57.091C78.5974 57.091 78.7271 57.0585 78.8244 56.9936C78.9217 56.9288 79.0191 56.8639 79.1164 56.7666L79.5056 57.1558C79.3759 57.318 79.2137 57.4153 79.0191 57.4802C78.8244 57.5451 78.6298 57.5775 78.4352 57.5775C78.2081 57.5775 78.0135 57.5451 77.8188 57.4802C77.6242 57.4153 77.462 57.318 77.3323 57.1883C77.2025 57.0585 77.1052 56.8963 77.0079 56.7017C76.943 56.5071 76.9106 56.3124 76.9106 56.0854C76.9106 55.8583 76.943 55.6637 77.0079 55.4691C77.0728 55.2744 77.1701 55.1122 77.2998 54.9825C77.4296 54.8527 77.5918 54.7554 77.7864 54.6581C77.981 54.5932 78.1757 54.5608 78.4027 54.5608C78.5974 54.5608 78.8244 54.5932 79.0191 54.6581C79.2137 54.723 79.3759 54.8527 79.5056 55.0149L79.1164 55.4042Z" fill="#231F20"/>
<path d="M80.0571 52.9388H80.6085V55.0798C80.6734 54.9176 80.8032 54.7878 80.9654 54.7229C81.1276 54.6256 81.3222 54.5932 81.5492 54.5932C81.679 54.5932 81.8088 54.6256 81.9385 54.6581C82.0683 54.6905 82.1656 54.7554 82.2629 54.8527C82.3602 54.95 82.4251 55.0473 82.49 55.2095C82.5548 55.3393 82.5873 55.5015 82.5873 55.6961V57.545H82.0358V55.8583C82.0358 55.7285 82.0034 55.5988 81.9709 55.5015C81.9385 55.4041 81.8736 55.3393 81.8412 55.2744C81.7763 55.2095 81.7114 55.1771 81.6466 55.1446C81.5817 55.1122 81.4844 55.1122 81.3871 55.1122C81.2897 55.1122 81.16 55.1446 81.0627 55.1771C80.9654 55.2095 80.868 55.2744 80.8032 55.3393C80.7383 55.4041 80.6734 55.5339 80.641 55.6312C80.6085 55.761 80.5761 55.8907 80.5761 56.0529V57.545H80.0247V52.9388H80.0571Z" fill="#231F20"/>
<path fill-rule="evenodd" clip-rule="evenodd" d="M26.437 34.8708C26.437 30.2322 30.0052 26.3721 35.0331 26.3721C40.061 26.3721 43.5967 30.1998 43.5967 34.806V34.8384C43.5967 39.477 40.0286 43.3372 35.0007 43.3372C29.9403 43.3372 26.437 39.5095 26.437 34.9033V34.8708ZM35.0007 40.7097C38.2769 40.7097 40.5476 38.1146 40.5476 34.9357V34.9033C40.5476 31.7243 38.212 29.0644 34.9682 29.0644C31.692 29.0644 29.4213 31.6595 29.4213 34.8384V34.8708C29.4213 38.0498 31.7569 40.7097 35.0007 40.7097Z" fill="#231F20"/>
<path d="M46.062 43.0777H48.949V26.6641H46.062V43.0777Z" fill="#231F20"/>
<path d="M59.8806 40.7097C56.7341 40.7097 54.4635 38.0822 54.4635 34.8709V34.8384C54.4635 31.6271 56.7341 29.0645 59.8806 29.0645C61.762 29.0645 63.1569 29.8754 64.4868 31.1081L66.3358 28.9671C64.7788 27.475 62.9298 26.4045 59.913 26.4045C54.95 26.4045 51.4467 30.2322 51.4467 34.9033V34.9357C51.4467 39.6393 55.0149 43.3696 59.7833 43.3696C62.8649 43.3696 64.7139 42.2343 66.4331 40.4502L64.5841 38.5688C63.1893 39.8988 61.8918 40.7097 59.8806 40.7097Z" fill="#231F20"/>
<path fill-rule="evenodd" clip-rule="evenodd" d="M82.1656 31.9191C82.1656 34.6114 80.5437 36.2333 78.2406 36.8821L82.6846 43.1102H79.2786L75.2563 37.4011H75.2238H71.6557V43.1102H68.7687V26.6965H76.0672C78.1433 26.6965 79.7327 27.3129 80.8032 28.3509C81.679 29.2267 82.1656 30.4593 82.1656 31.8866V31.9191ZM71.6557 29.2916V34.806H75.8726C77.9486 34.806 79.2462 33.7032 79.2462 32.0488V32.0164C79.2462 30.2647 77.9811 29.2916 75.8402 29.2916H71.6557Z" fill="#231F20"/>
<path d="M91.1185 24.361V60.0428" stroke="#CCCCCC" stroke-width="2"/>
<path fill-rule="evenodd" clip-rule="evenodd" d="M99.455 37.7579C100.039 38.0174 100.72 38.1472 101.434 38.1472C102.147 38.1472 102.829 38.0174 103.412 37.7579C103.996 37.4984 104.515 37.174 104.969 36.7199C105.424 36.2658 105.748 35.7468 106.008 35.1304C106.235 34.5465 106.364 33.8653 106.364 33.1517C106.364 32.4381 106.267 31.7893 106.008 31.173C105.748 30.5567 105.391 30.0377 104.969 29.5835C104.548 29.1294 104.029 28.805 103.412 28.5455C102.829 28.286 102.147 28.1562 101.434 28.1562C100.72 28.1562 100.071 28.286 99.455 28.5455C98.8711 28.805 98.3521 29.1294 97.898 29.5835C97.4439 30.0377 97.1195 30.5567 96.86 31.173C96.6329 31.7569 96.5032 32.4381 96.5032 33.1517C96.5032 33.8653 96.6005 34.5141 96.86 35.1304C97.1195 35.7468 97.4763 36.2658 97.898 36.7199C98.3197 37.174 98.8387 37.4984 99.455 37.7579ZM102.958 36.7848C102.504 37.0118 101.985 37.1092 101.434 37.1092C100.882 37.1092 100.363 37.0118 99.9092 36.7848C99.4226 36.5901 99.0333 36.2982 98.709 35.9414C98.3846 35.5846 98.1251 35.1629 97.9304 34.6763C97.7683 34.2222 97.6709 33.7032 97.6709 33.1517C97.6709 32.6327 97.7358 32.1137 97.9304 31.6271C98.1251 31.1406 98.3846 30.7189 98.709 30.362C99.0658 30.0052 99.455 29.7133 99.9092 29.5186C100.363 29.2916 100.882 29.1943 101.434 29.1943C101.985 29.1943 102.504 29.324 102.958 29.5186C103.445 29.7133 103.834 30.0052 104.159 30.362C104.483 30.7189 104.742 31.1406 104.937 31.6271C105.099 32.0813 105.197 32.6003 105.197 33.1517C105.197 33.6707 105.132 34.1897 104.937 34.6763C104.742 35.1629 104.483 35.5846 104.159 35.9414C103.802 36.2982 103.412 36.5901 102.958 36.7848Z" fill="black"/>
<path d="M107.921 33.1192C107.921 32.8272 107.921 32.5677 107.889 32.3082C107.857 32.0487 107.857 31.8217 107.857 31.627H108.862C108.862 31.7892 108.862 31.9514 108.862 32.146C108.862 32.3407 108.862 32.5029 108.862 32.6651H108.895C108.959 32.5029 109.057 32.3731 109.186 32.2109C109.316 32.0812 109.478 31.9514 109.641 31.8217C109.835 31.7243 110.03 31.627 110.257 31.5622C110.484 31.4973 110.711 31.4648 110.971 31.4648C111.392 31.4648 111.749 31.5297 112.041 31.6595C112.333 31.7892 112.592 31.9514 112.787 32.1785C112.982 32.4055 113.144 32.6651 113.209 32.9894C113.306 33.3138 113.339 33.6382 113.339 34.0274V37.92H112.301V34.1572C112.301 33.6382 112.171 33.2165 111.944 32.8921C111.717 32.6002 111.36 32.438 110.841 32.438C110.516 32.438 110.192 32.5029 109.965 32.6002C109.706 32.7299 109.511 32.8921 109.349 33.0867C109.186 33.3138 109.089 33.5409 108.992 33.8653C108.895 34.1896 108.862 34.4816 108.862 34.8384V37.8876H107.824V33.1192H107.921Z" fill="black"/>
<path d="M118.756 32.5029H116.907V35.6494C116.907 35.8441 116.907 36.0387 116.907 36.2333C116.907 36.3955 116.939 36.5577 117.004 36.6874C117.069 36.8172 117.166 36.9145 117.296 37.0118C117.426 37.0767 117.588 37.1416 117.847 37.1416C118.01 37.1416 118.172 37.1091 118.302 37.0767C118.431 37.0443 118.626 36.9794 118.756 36.9145L118.788 37.8552C118.594 37.9201 118.399 37.985 118.204 38.0174C117.977 38.0498 117.783 38.0823 117.588 38.0823C117.199 38.0823 116.907 38.0174 116.68 37.9201C116.453 37.8228 116.29 37.693 116.161 37.4984C116.031 37.3038 115.966 37.1091 115.901 36.8496C115.869 36.5901 115.836 36.2982 115.836 35.9738V32.5354H114.474V31.6595H115.836V29.843H116.874V31.6271H118.723V32.5029H118.756Z" fill="black"/>
<path fill-rule="evenodd" clip-rule="evenodd" d="M120.994 31.6919C120.572 31.8541 120.183 32.1136 119.859 32.438L120.475 33.0543C120.734 32.8272 121.026 32.6326 121.351 32.5353C121.675 32.438 122.032 32.3731 122.356 32.3731C122.843 32.3731 123.232 32.5029 123.492 32.7299C123.784 32.957 123.913 33.3138 123.913 33.7679V33.9626H123.524C123.163 33.9626 122.774 33.9905 122.356 34.0205C122.324 34.0228 122.292 34.0251 122.259 34.0274C121.805 34.0599 121.351 34.1572 120.961 34.287C120.572 34.4167 120.215 34.6438 119.956 34.9357C119.696 35.2277 119.567 35.6494 119.567 36.1684C119.567 36.4927 119.632 36.7522 119.761 36.9793C119.891 37.2064 120.086 37.401 120.28 37.5632C120.507 37.7254 120.734 37.8551 121.026 37.92C121.318 38.0173 121.61 38.0498 121.935 38.0498C122.421 38.0498 122.81 37.92 123.167 37.7254C123.492 37.5308 123.784 37.2713 123.978 36.9469H124.011V37.401C124.011 37.5956 124.043 37.7578 124.076 37.8876H125.081C125.064 37.8024 125.056 37.7173 125.047 37.6275C125.04 37.5462 125.032 37.461 125.016 37.3686C124.984 37.1739 124.984 37.0117 124.984 36.8171V34.1248C124.984 33.2165 124.789 32.5677 124.367 32.1136C123.946 31.6919 123.297 31.4648 122.356 31.4648C121.902 31.4648 121.448 31.5297 120.994 31.6919ZM121.318 35.1952C121.708 35.0006 122.227 34.9033 122.908 34.9033V34.9357H123.978V35.325C123.978 35.5845 123.913 35.844 123.848 36.071C123.751 36.2981 123.654 36.4927 123.492 36.6549C123.329 36.8496 123.135 36.9793 122.908 37.0766C122.681 37.1739 122.389 37.2388 122.097 37.2388C121.708 37.2388 121.383 37.1415 121.124 36.9793C120.864 36.8171 120.734 36.5252 120.734 36.1359C120.734 35.6818 120.929 35.3898 121.318 35.1952Z" fill="black"/>
<path d="M126.8 33.1192C126.8 32.8272 126.8 32.5677 126.768 32.3082C126.735 32.0487 126.735 31.8217 126.735 31.627H127.741C127.741 31.7892 127.741 31.9514 127.741 32.146C127.741 32.3407 127.741 32.5029 127.741 32.6651H127.773C127.838 32.5029 127.936 32.3731 128.065 32.2109C128.195 32.0812 128.357 31.9514 128.52 31.8217C128.714 31.7243 128.909 31.627 129.136 31.5622C129.363 31.4973 129.59 31.4648 129.85 31.4648C129.914 31.4648 129.979 31.4648 130.077 31.4648C130.141 31.4648 130.206 31.4973 130.304 31.5297L130.239 32.6002C130.044 32.5353 129.882 32.5353 129.687 32.5353C129.039 32.5353 128.584 32.7299 128.292 33.1516C128.001 33.5733 127.871 34.1248 127.871 34.8708V37.92H126.8V33.1192Z" fill="black"/>
<path fill-rule="evenodd" clip-rule="evenodd" d="M131.536 28.6104C131.374 28.7726 131.309 28.9672 131.309 29.1618C131.309 29.3889 131.374 29.5835 131.536 29.7133C131.666 29.8755 131.861 29.9403 132.088 29.9403C132.315 29.9403 132.509 29.843 132.639 29.7133C132.801 29.5835 132.866 29.3889 132.866 29.1618C132.866 28.9347 132.801 28.7726 132.639 28.6104C132.477 28.4482 132.315 28.3833 132.088 28.3833C131.861 28.3833 131.698 28.4482 131.536 28.6104ZM132.574 31.6271H131.536V37.9201H132.574V31.6271Z" fill="black"/>
<path fill-rule="evenodd" clip-rule="evenodd" d="M134.456 33.4436C134.294 33.8329 134.196 34.287 134.196 34.7736C134.196 35.2601 134.294 35.7143 134.456 36.1035C134.65 36.4928 134.877 36.8496 135.169 37.1415C135.461 37.4335 135.818 37.6605 136.24 37.8227C136.629 37.9849 137.083 38.0498 137.57 38.0498C138.056 38.0498 138.478 37.9849 138.9 37.8227C139.321 37.6605 139.678 37.4335 139.97 37.1415C140.295 36.8496 140.522 36.4928 140.684 36.1035C140.846 35.7143 140.943 35.2601 140.943 34.7736C140.943 34.287 140.846 33.8329 140.684 33.4436C140.489 33.0543 140.262 32.6975 139.97 32.4056C139.678 32.1136 139.321 31.8866 138.9 31.7244C138.51 31.5622 138.056 31.4973 137.57 31.4973C137.083 31.4973 136.662 31.5622 136.24 31.7244C135.818 31.8866 135.461 32.1136 135.169 32.4056C134.845 32.6975 134.618 33.0543 134.456 33.4436ZM135.494 35.6818C135.396 35.4223 135.332 35.0979 135.332 34.7736C135.332 34.4492 135.396 34.1248 135.494 33.8653C135.591 33.5734 135.753 33.3138 135.948 33.1192C136.143 32.9246 136.402 32.7624 136.662 32.6326C136.921 32.5029 137.245 32.438 137.57 32.438C137.894 32.438 138.219 32.5029 138.478 32.6326C138.77 32.73 138.997 32.9246 139.192 33.1192C139.386 33.3463 139.549 33.5734 139.646 33.8653C139.743 34.1248 139.808 34.4492 139.808 34.7736C139.808 35.0979 139.743 35.3899 139.646 35.6818C139.549 35.9738 139.386 36.2333 139.192 36.4279C138.997 36.6225 138.738 36.7847 138.478 36.9145C138.219 37.0442 137.894 37.1091 137.57 37.1091C137.245 37.1091 136.921 37.0442 136.662 36.9145C136.37 36.8172 136.143 36.6225 135.948 36.4279C135.753 36.2008 135.591 35.9738 135.494 35.6818Z" fill="black"/>
<path d="M146.296 28.4156H147.431V32.438H152.491V28.4156H153.627V37.92H152.491V33.476H147.431V37.92H146.296V28.4156Z" fill="black"/>
<path fill-rule="evenodd" clip-rule="evenodd" d="M160.082 37.7903C160.536 37.5957 160.925 37.2713 161.314 36.7847L160.503 36.2008C160.244 36.5252 159.984 36.7523 159.66 36.9145C159.336 37.0767 158.946 37.1415 158.492 37.1415C158.233 37.1415 157.941 37.0767 157.714 36.9793C157.487 36.882 157.292 36.7523 157.097 36.5576C156.935 36.363 156.773 36.1684 156.676 35.9089C156.578 35.6494 156.514 35.3899 156.481 35.1304H161.541V34.806C161.541 34.287 161.477 33.8329 161.314 33.4112C161.152 32.9895 160.958 32.6651 160.698 32.3731C160.439 32.0812 160.114 31.8866 159.757 31.7244C159.401 31.5622 159.011 31.4973 158.557 31.4973C158.071 31.4973 157.649 31.5622 157.26 31.7244C156.87 31.8866 156.546 32.1136 156.254 32.4056C155.962 32.6975 155.735 33.0219 155.573 33.4436C155.411 33.8329 155.346 34.287 155.346 34.7736C155.346 35.2277 155.411 35.6818 155.573 36.0711C155.703 36.4603 155.93 36.8172 156.189 37.1091C156.481 37.401 156.806 37.6605 157.195 37.8227C157.584 37.9849 158.038 38.0822 158.525 38.0822C159.109 38.0822 159.628 37.9849 160.082 37.7903ZM159.887 32.9246C160.212 33.249 160.374 33.6707 160.406 34.2221H156.481C156.546 33.6707 156.773 33.249 157.13 32.9246C157.487 32.6002 157.941 32.438 158.525 32.438C159.109 32.438 159.563 32.6002 159.887 32.9246Z" fill="black"/>
<path d="M163.066 33.1192C163.066 32.8272 163.066 32.5677 163.034 32.3082C163.001 32.0487 163.001 31.8217 163.001 31.627H164.007C164.007 31.7892 164.007 31.9514 164.007 32.146C164.007 32.3407 164.007 32.5029 164.007 32.6651H164.039C164.104 32.5029 164.201 32.3731 164.331 32.2109C164.461 32.0812 164.623 31.9514 164.785 31.8217C164.98 31.7243 165.175 31.627 165.402 31.5622C165.629 31.4973 165.856 31.4648 166.115 31.4648C166.18 31.4648 166.245 31.4648 166.342 31.4648C166.407 31.4648 166.472 31.4973 166.569 31.5297L166.505 32.6002C166.31 32.5353 166.148 32.5353 165.953 32.5353C165.304 32.5353 164.85 32.7299 164.558 33.1516C164.266 33.5733 164.137 34.1248 164.137 34.8708V37.92H163.099V33.1192H163.066Z" fill="black"/>
<path fill-rule="evenodd" clip-rule="evenodd" d="M171.857 37.7903C172.311 37.5957 172.7 37.2713 173.089 36.7847L172.278 36.2008C172.019 36.5252 171.759 36.7523 171.435 36.9145C171.111 37.0767 170.721 37.1415 170.267 37.1415C170.008 37.1415 169.716 37.0767 169.489 36.9793C169.262 36.882 169.067 36.7523 168.873 36.5576C168.71 36.363 168.548 36.1684 168.451 35.9089C168.353 35.6494 168.289 35.3899 168.256 35.1304H173.317V34.806C173.317 34.287 173.252 33.8329 173.089 33.4112C172.927 32.9895 172.733 32.6651 172.473 32.3731C172.214 32.0812 171.889 31.8866 171.532 31.7244C171.176 31.5622 170.786 31.4973 170.332 31.4973C169.846 31.4973 169.424 31.5622 169.035 31.7244C168.645 31.8866 168.321 32.1136 168.029 32.4056C167.737 32.6975 167.51 33.0219 167.348 33.4436C167.186 33.8329 167.121 34.287 167.121 34.7736C167.121 35.2277 167.186 35.6818 167.348 36.0711C167.478 36.4603 167.705 36.8172 167.964 37.1091C168.256 37.401 168.581 37.6605 168.97 37.8227C169.359 37.9849 169.813 38.0822 170.3 38.0822C170.884 38.0822 171.403 37.9849 171.857 37.7903ZM171.662 32.9246C171.987 33.249 172.149 33.6707 172.181 34.2221H168.256C168.321 33.6707 168.548 33.249 168.905 32.9246C169.262 32.6002 169.716 32.438 170.3 32.438C170.884 32.438 171.338 32.6002 171.662 32.9246Z" fill="black"/>
<path fill-rule="evenodd" clip-rule="evenodd" d="M179.09 37.693C179.545 37.4335 179.837 37.1415 180.064 36.7847H180.096V37.8876H181.134V27.7345H180.096V32.5029H180.064C179.772 32.1785 179.447 31.919 179.058 31.7244C178.669 31.5297 178.247 31.4324 177.793 31.4324C177.274 31.4324 176.852 31.5297 176.431 31.6919C176.041 31.8541 175.684 32.0812 175.393 32.3731C175.101 32.6651 174.874 33.0219 174.711 33.4112C174.549 33.8328 174.484 34.2545 174.484 34.7411C174.484 35.2277 174.549 35.6818 174.711 36.0711C174.841 36.4603 175.068 36.8171 175.36 37.1091C175.652 37.401 175.976 37.6281 176.366 37.7903C176.755 37.9525 177.144 38.0498 177.598 38.0498C178.182 38.0498 178.669 37.9525 179.09 37.693ZM179.901 33.8653C179.999 34.1248 180.064 34.4492 180.064 34.7736C180.064 35.0979 179.999 35.4223 179.901 35.6818C179.804 35.9738 179.642 36.2333 179.447 36.4279C179.253 36.6225 178.993 36.7847 178.734 36.9145C178.474 37.0442 178.15 37.1091 177.825 37.1091C177.501 37.1091 177.177 37.0442 176.917 36.9145C176.625 36.8172 176.398 36.6225 176.203 36.4279C176.009 36.2008 175.847 35.9738 175.749 35.6818C175.652 35.4223 175.587 35.0979 175.587 34.7736C175.587 34.4492 175.652 34.1572 175.749 33.8653C175.847 33.5733 176.009 33.3138 176.203 33.1192C176.398 32.9246 176.658 32.7624 176.917 32.6326C177.177 32.5029 177.501 32.438 177.825 32.438C178.15 32.438 178.474 32.5029 178.734 32.6326C179.026 32.73 179.253 32.9246 179.447 33.1192C179.642 33.3463 179.804 33.5733 179.901 33.8653Z" fill="black"/>
<path fill-rule="evenodd" clip-rule="evenodd" d="M183.048 28.6104C182.886 28.7726 182.821 28.9672 182.821 29.1618C182.821 29.3889 182.886 29.5835 183.048 29.7133C183.178 29.8755 183.372 29.9403 183.599 29.9403C183.826 29.9403 184.021 29.843 184.151 29.7133C184.313 29.5835 184.378 29.3889 184.378 29.1618C184.378 28.9347 184.313 28.7726 184.151 28.6104C183.989 28.4482 183.826 28.3833 183.599 28.3833C183.372 28.3833 183.21 28.4482 183.048 28.6104ZM184.086 31.6271H183.048V37.9201H184.086V31.6271Z" fill="black"/>
<path d="M189.536 32.5029H187.687V35.6494C187.687 35.8441 187.687 36.0387 187.687 36.2333C187.687 36.3955 187.719 36.5577 187.784 36.6874C187.849 36.8172 187.946 36.9145 188.076 37.0118C188.206 37.0767 188.368 37.1416 188.627 37.1416C188.789 37.1416 188.952 37.1091 189.081 37.0767C189.211 37.0443 189.406 36.9794 189.536 36.9145L189.568 37.8552C189.373 37.9201 189.179 37.985 188.984 38.0174C188.757 38.0498 188.562 38.0823 188.368 38.0823C187.978 38.0823 187.687 38.0174 187.459 37.9201C187.232 37.8228 187.07 37.693 186.94 37.4984C186.811 37.3038 186.746 37.1091 186.681 36.8496C186.649 36.5901 186.616 36.2982 186.616 35.9738V32.5354H185.254V31.6595H186.616V29.843H187.654V31.6271H189.503V32.5029H189.536Z" fill="black"/>
<path fill-rule="evenodd" clip-rule="evenodd" d="M191.774 31.6919C191.352 31.8541 190.963 32.1136 190.638 32.438L191.255 33.0543C191.514 32.8272 191.806 32.6326 192.131 32.5353C192.455 32.438 192.812 32.3731 193.136 32.3731C193.623 32.3731 194.012 32.5029 194.271 32.7299C194.563 32.957 194.693 33.3138 194.693 33.7679V33.9626H194.304C193.943 33.9626 193.553 33.9905 193.136 34.0205C193.104 34.0228 193.071 34.0251 193.039 34.0274C192.585 34.0599 192.131 34.1572 191.741 34.287C191.352 34.4167 190.995 34.6438 190.736 34.9357C190.476 35.2277 190.346 35.6494 190.346 36.1684C190.346 36.4927 190.411 36.7522 190.541 36.9793C190.671 37.2064 190.865 37.401 191.06 37.5632C191.287 37.7254 191.514 37.8551 191.806 37.92C192.098 38.0173 192.39 38.0498 192.714 38.0498C193.201 38.0498 193.59 37.92 193.947 37.7254C194.271 37.5308 194.563 37.2713 194.758 36.9469H194.79V37.401C194.79 37.5956 194.823 37.7578 194.855 37.8876H195.861C195.844 37.8024 195.836 37.7173 195.827 37.6275C195.82 37.5462 195.811 37.461 195.796 37.3686C195.764 37.1739 195.764 37.0117 195.764 36.8171V34.1248C195.764 33.2165 195.569 32.5677 195.147 32.1136C194.726 31.6919 194.077 31.4648 193.136 31.4648C192.682 31.4648 192.228 31.5297 191.774 31.6919ZM192.098 35.1952C192.487 35.0006 193.006 34.9033 193.688 34.9033V34.9357H194.758V35.325C194.758 35.5845 194.693 35.844 194.628 36.071C194.531 36.2981 194.434 36.4927 194.271 36.6549C194.109 36.8496 193.915 36.9793 193.688 37.0766C193.461 37.1739 193.169 37.2388 192.877 37.2388C192.487 37.2388 192.163 37.1415 191.903 36.9793C191.644 36.8171 191.514 36.5252 191.514 36.1359C191.514 35.6818 191.709 35.3898 192.098 35.1952Z" fill="black"/>
<path d="M197.613 33.1192C197.613 32.8272 197.613 32.5677 197.58 32.3082C197.548 32.0487 197.548 31.8217 197.548 31.627H198.553C198.553 31.7892 198.553 31.9514 198.553 32.146C198.553 32.3407 198.553 32.5029 198.553 32.6651H198.586C198.651 32.5029 198.748 32.3731 198.878 32.2109C199.007 32.0812 199.17 31.9514 199.332 31.8217C199.526 31.7243 199.721 31.627 199.948 31.5622C200.175 31.4973 200.402 31.4648 200.662 31.4648C200.727 31.4648 200.792 31.4648 200.889 31.4648C200.954 31.4648 201.019 31.4973 201.116 31.5297L201.051 32.6002C200.856 32.5353 200.694 32.5353 200.5 32.5353C199.851 32.5353 199.397 32.7299 199.105 33.1516C198.813 33.5733 198.683 34.1248 198.683 34.8708V37.92H197.645V33.1192H197.613Z" fill="black"/>
<path d="M204.554 39.3474C204.457 39.6069 204.327 39.8664 204.23 40.0934C204.133 40.3205 203.97 40.5151 203.841 40.6449C203.678 40.8071 203.484 40.9368 203.289 41.0017C203.062 41.099 202.803 41.1315 202.478 41.1315C202.316 41.1315 202.154 41.1315 201.992 41.099C201.83 41.0666 201.667 41.0341 201.538 40.9693L201.667 40.061C201.765 40.0934 201.894 40.1259 201.992 40.1583C202.121 40.1583 202.251 40.1908 202.381 40.1908C202.705 40.1908 202.965 40.0934 203.127 39.8988C203.289 39.7042 203.419 39.4447 203.549 39.1527L203.97 37.985L201.375 31.6595H202.608L204.554 36.5901H204.587L206.468 31.6595H207.604L204.554 39.3474Z" fill="black"/>
<path d="M103.672 46.4837C103.38 46.0945 103.023 45.8025 102.602 45.6079C102.18 45.4133 101.758 45.316 101.272 45.316C100.753 45.316 100.266 45.4133 99.8119 45.6404C99.3577 45.8674 99.0009 46.1594 98.6766 46.5162C98.3522 46.873 98.0927 47.2947 97.9305 47.7813C97.7358 48.2678 97.671 48.7544 97.671 49.2734C97.671 49.8249 97.7683 50.3439 97.9305 50.8304C98.1251 51.317 98.3522 51.7387 98.6766 52.0955C99.0009 52.4523 99.3902 52.7443 99.8119 52.9389C100.266 53.1335 100.753 53.2633 101.272 53.2633C101.855 53.2633 102.374 53.1335 102.829 52.9065C103.283 52.6794 103.672 52.355 104.029 51.9333L104.872 52.647C104.451 53.2309 103.932 53.6525 103.315 53.9121C102.699 54.1716 102.018 54.3013 101.272 54.3013C100.59 54.3013 99.9416 54.1716 99.3577 53.9121C98.7739 53.6525 98.2549 53.3282 97.8332 52.874C97.4115 52.4199 97.0546 51.9009 96.8276 51.2846C96.6005 50.6682 96.4708 50.0195 96.4708 49.2734C96.4708 48.5598 96.6005 47.911 96.8276 47.3271C97.0546 46.7108 97.4115 46.1918 97.8332 45.7377C98.2549 45.2835 98.7739 44.9267 99.3577 44.6672C99.9416 44.4077 100.59 44.278 101.304 44.278C101.953 44.278 102.569 44.4077 103.153 44.6348C103.737 44.8618 104.256 45.2511 104.645 45.7701L103.672 46.4837Z" fill="black"/>
<path fill-rule="evenodd" clip-rule="evenodd" d="M107.24 47.8136C106.819 47.9758 106.429 48.2353 106.105 48.5597L106.721 49.176C106.981 48.9489 107.273 48.7543 107.597 48.657C107.921 48.5597 108.278 48.4948 108.603 48.4948C109.089 48.4948 109.478 48.6246 109.738 48.8516C110.03 49.0787 110.16 49.4355 110.16 49.8896V50.0843H109.77C109.409 50.0843 109.02 50.1122 108.603 50.1422C108.57 50.1445 108.538 50.1468 108.505 50.1492C108.051 50.1816 107.597 50.2789 107.208 50.4087C106.819 50.5384 106.462 50.7655 106.202 51.0574C105.943 51.3494 105.813 51.7711 105.813 52.2901C105.813 52.6144 105.878 52.8739 106.008 53.101C106.137 53.3281 106.332 53.5227 106.527 53.6849C106.754 53.8471 106.981 53.9768 107.273 54.0417C107.565 54.139 107.857 54.1715 108.181 54.1715C108.667 54.1715 109.057 54.0417 109.414 53.8471C109.738 53.6525 110.03 53.393 110.224 53.0686H110.257V53.5227C110.257 53.7173 110.289 53.8795 110.322 54.0093H111.327C111.31 53.9241 111.302 53.839 111.294 53.7492C111.286 53.6679 111.278 53.5827 111.263 53.4903C111.23 53.2956 111.23 53.1335 111.23 52.9388V50.2465C111.23 49.3382 111.035 48.6894 110.614 48.2353C110.192 47.8136 109.543 47.5865 108.603 47.5865C108.148 47.5865 107.694 47.6514 107.24 47.8136ZM107.565 51.2845C107.954 51.0899 108.473 50.9925 109.154 50.9925V51.025H110.225V51.4142C110.225 51.6737 110.16 51.9332 110.095 52.1603C109.997 52.3874 109.9 52.582 109.738 52.7442C109.576 52.9388 109.381 53.0686 109.154 53.1659C108.927 53.2632 108.635 53.3281 108.343 53.3281C107.954 53.3281 107.629 53.2308 107.37 53.0686C107.11 52.9064 106.981 52.6144 106.981 52.2252C106.981 51.7711 107.175 51.4791 107.565 51.2845Z" fill="black"/>
<path d="M113.047 49.2409C113.047 48.9489 113.047 48.6894 113.014 48.4299C112.982 48.1704 112.982 47.9434 112.982 47.7487H113.987C113.987 47.9109 113.987 48.0731 113.987 48.2677C113.987 48.4624 113.987 48.6246 113.987 48.7868H114.02C114.085 48.6246 114.182 48.4948 114.312 48.3326C114.441 48.2029 114.604 48.0731 114.766 47.9434C114.96 47.8461 115.155 47.7487 115.382 47.6839C115.609 47.619 115.836 47.5865 116.096 47.5865C116.517 47.5865 116.874 47.6514 117.166 47.7812C117.458 47.9109 117.718 48.0731 117.912 48.3002C118.107 48.5273 118.269 48.7868 118.334 49.1111C118.431 49.4355 118.464 49.7599 118.464 50.1492V54.0417H117.426V50.2789C117.426 49.7599 117.296 49.3382 117.069 49.0138C116.842 48.7219 116.485 48.5597 115.966 48.5597C115.642 48.5597 115.317 48.6246 115.09 48.7219C114.831 48.8516 114.636 49.0138 114.474 49.2085C114.312 49.4355 114.214 49.6626 114.117 49.987C114.02 50.3113 113.987 50.6033 113.987 50.9601V54.0093H112.949V49.2409H113.047Z" fill="black"/>
<path d="M124.919 49.3058C124.692 49.0463 124.465 48.8517 124.205 48.7219C123.946 48.5922 123.654 48.5273 123.362 48.5273C123.005 48.5273 122.713 48.5922 122.421 48.7219C122.162 48.8517 121.935 49.0139 121.772 49.241C121.61 49.468 121.481 49.6951 121.383 49.987C121.286 50.279 121.253 50.5709 121.253 50.8953C121.253 51.2197 121.318 51.5116 121.416 51.8036C121.513 52.0955 121.675 52.3226 121.837 52.5496C122.032 52.7767 122.227 52.9389 122.486 53.0686C122.746 53.1984 123.038 53.2633 123.362 53.2633C124.043 53.2633 124.595 53.0038 124.951 52.4848L125.73 53.2308C125.438 53.5877 125.081 53.8472 124.659 54.0093C124.238 54.1715 123.816 54.2364 123.362 54.2364C122.875 54.2364 122.421 54.1715 122.032 54.0093C121.643 53.8472 121.286 53.6201 120.994 53.3281C120.702 53.0362 120.507 52.6794 120.345 52.2901C120.183 51.9009 120.118 51.4467 120.118 50.9602C120.118 50.4736 120.183 50.0519 120.345 49.6302C120.507 49.241 120.734 48.8841 120.994 48.5922C121.286 48.3003 121.61 48.0732 122.032 47.911C122.421 47.7488 122.875 47.6515 123.362 47.6515C123.816 47.6515 124.27 47.7164 124.692 47.8786C125.114 48.0407 125.47 48.3003 125.795 48.6246L124.919 49.3058Z" fill="black"/>
<path fill-rule="evenodd" clip-rule="evenodd" d="M131.179 53.8795C131.634 53.6849 132.023 53.3605 132.412 52.8739L131.601 52.2901C131.342 52.6144 131.082 52.8415 130.758 53.0037C130.433 53.1659 130.044 53.2308 129.59 53.2308C129.33 53.2308 129.039 53.1659 128.811 53.0686C128.584 52.9713 128.39 52.8415 128.195 52.6469C128.033 52.4523 127.871 52.2576 127.773 51.9981C127.676 51.7386 127.611 51.4791 127.579 51.2196H132.639V50.8952C132.639 50.3762 132.574 49.9221 132.412 49.5004C132.25 49.0787 132.055 48.7543 131.796 48.4624C131.536 48.1704 131.212 47.9758 130.855 47.8136C130.498 47.6514 130.109 47.5865 129.655 47.5865C129.168 47.5865 128.747 47.6514 128.357 47.8136C127.968 47.9758 127.644 48.2029 127.352 48.4948C127.06 48.7868 126.833 49.1111 126.671 49.5328C126.508 49.9221 126.443 50.3762 126.443 50.8628C126.443 51.3169 126.508 51.7711 126.671 52.1603C126.8 52.5496 127.027 52.9064 127.287 53.1983C127.579 53.4903 127.903 53.7498 128.292 53.912C128.682 54.0742 129.136 54.1715 129.622 54.1715C130.206 54.1715 130.725 54.0742 131.179 53.8795ZM131.017 49.0138C131.342 49.3382 131.504 49.7599 131.536 50.3113H127.611C127.676 49.7599 127.903 49.3382 128.26 49.0138C128.617 48.6894 129.071 48.5273 129.655 48.5273C130.239 48.5273 130.693 48.6894 131.017 49.0138Z" fill="black"/>
<path d="M134.196 49.2409C134.196 48.9489 134.196 48.6894 134.164 48.4299C134.131 48.1704 134.131 47.9434 134.131 47.7487H135.137C135.137 47.9109 135.137 48.0731 135.137 48.2677C135.137 48.4624 135.137 48.6246 135.137 48.7868H135.169C135.234 48.6246 135.332 48.4948 135.461 48.3326C135.591 48.2029 135.753 48.0731 135.915 47.9434C136.11 47.8461 136.305 47.7487 136.532 47.6839C136.759 47.619 136.986 47.5865 137.245 47.5865C137.31 47.5865 137.375 47.5865 137.472 47.5865C137.537 47.5865 137.602 47.619 137.7 47.6514L137.635 48.7219C137.44 48.657 137.278 48.657 137.083 48.657C136.434 48.657 135.98 48.8516 135.688 49.2733C135.396 49.695 135.267 50.2465 135.267 50.9925V54.0417H134.229V49.2409H134.196Z" fill="black"/>
<path fill-rule="evenodd" clip-rule="evenodd" d="M145.063 44.505H142.63H142.598V53.9769H143.733V49.6951H145.193L147.755 53.9769H149.15L146.458 49.5978C147.204 49.5005 147.788 49.2085 148.209 48.7868C148.631 48.3651 148.826 47.8137 148.826 47.1C148.826 46.5162 148.728 46.062 148.501 45.7052C148.274 45.3808 147.982 45.1213 147.626 44.9267C147.269 44.7321 146.879 44.6348 146.425 44.5699C145.971 44.5374 145.517 44.505 145.063 44.505ZM144.771 48.722H143.798V45.5755H145.387C145.647 45.5755 145.939 45.6079 146.198 45.6403C146.49 45.6728 146.717 45.7701 146.944 45.8674C147.139 45.9972 147.334 46.1593 147.463 46.354C147.593 46.5486 147.658 46.8405 147.658 47.1649C147.658 47.5542 147.593 47.8786 147.398 48.0732C147.204 48.2678 146.977 48.43 146.685 48.5273C146.393 48.6246 146.069 48.6571 145.744 48.6895C145.42 48.722 145.095 48.722 144.771 48.722Z" fill="black"/>
<path fill-rule="evenodd" clip-rule="evenodd" d="M154.957 53.8795C155.411 53.6849 155.8 53.3605 156.189 52.8739L155.378 52.2901C155.119 52.6144 154.859 52.8415 154.535 53.0037C154.21 53.1659 153.821 53.2308 153.367 53.2308C153.108 53.2308 152.816 53.1659 152.589 53.0686C152.361 52.9713 152.167 52.8415 151.972 52.6469C151.81 52.4523 151.648 52.2576 151.551 51.9981C151.453 51.7386 151.388 51.4791 151.356 51.2196H156.416V50.8952C156.416 50.3762 156.351 49.9221 156.189 49.5004C156.027 49.0787 155.832 48.7543 155.573 48.4624C155.313 48.1704 154.989 47.9758 154.632 47.8136C154.275 47.6514 153.886 47.5865 153.432 47.5865C152.945 47.5865 152.524 47.6514 152.134 47.8136C151.745 47.9758 151.421 48.2029 151.129 48.4948C150.837 48.7868 150.61 49.1111 150.448 49.5328C150.285 49.9221 150.221 50.3762 150.221 50.8628C150.221 51.3169 150.285 51.7711 150.448 52.1603C150.577 52.5496 150.804 52.9064 151.064 53.1983C151.356 53.4903 151.68 53.7498 152.07 53.912C152.459 54.0742 152.913 54.1715 153.4 54.1715C153.983 54.1715 154.502 54.0742 154.957 53.8795ZM154.762 49.0138C155.086 49.3382 155.248 49.7599 155.281 50.3113H151.356C151.421 49.7599 151.648 49.3382 152.005 49.0138C152.361 48.6894 152.816 48.5273 153.4 48.5273C153.983 48.5273 154.438 48.6894 154.762 49.0138Z" fill="black"/>
<path d="M158.071 52.3875C158.265 52.647 158.492 52.8416 158.752 53.0038C159.011 53.166 159.303 53.2309 159.693 53.2309C159.855 53.2309 160.017 53.1984 160.179 53.166C160.341 53.1335 160.503 53.0687 160.633 53.0038C160.763 52.9389 160.86 52.8092 160.958 52.7118C161.022 52.5821 161.087 52.4523 161.087 52.2902C161.087 52.128 161.055 51.9658 160.958 51.8685C160.893 51.7711 160.795 51.6738 160.666 51.609C160.536 51.5441 160.406 51.4792 160.244 51.4143C160.082 51.3819 159.92 51.317 159.757 51.2846C159.465 51.2197 159.174 51.1548 158.914 51.0575C158.655 50.9926 158.395 50.8629 158.2 50.7331C158.006 50.6034 157.844 50.4412 157.714 50.2141C157.584 50.0195 157.519 49.76 157.519 49.4356C157.519 49.1437 157.584 48.8517 157.714 48.6247C157.844 48.3976 158.038 48.203 158.265 48.0408C158.492 47.8786 158.752 47.7813 159.011 47.684C159.303 47.6191 159.563 47.5542 159.855 47.5542C160.309 47.5542 160.731 47.6515 161.087 47.8137C161.477 48.0083 161.769 48.2678 161.996 48.6895L161.12 49.2734C160.99 49.0463 160.795 48.8842 160.601 48.722C160.374 48.5922 160.114 48.5273 159.79 48.5273C159.66 48.5273 159.498 48.5598 159.368 48.5922C159.206 48.6247 159.076 48.6895 158.979 48.7544C158.849 48.8193 158.752 48.9166 158.687 49.0139C158.622 49.1112 158.557 49.241 158.557 49.4032C158.557 49.5329 158.59 49.6627 158.687 49.76C158.784 49.8573 158.882 49.9222 159.044 50.0195C159.206 50.0844 159.368 50.1492 159.563 50.2141C159.757 50.279 159.952 50.3114 160.147 50.3439C160.439 50.4087 160.698 50.4736 160.925 50.5385C161.185 50.6358 161.379 50.7331 161.574 50.8953C161.769 51.0251 161.898 51.2197 162.028 51.4468C162.125 51.6738 162.19 51.9333 162.19 52.2253C162.19 52.5821 162.125 52.874 161.963 53.1335C161.833 53.393 161.639 53.5877 161.379 53.7499C161.152 53.9121 160.86 54.0094 160.568 54.1067C160.276 54.204 159.952 54.204 159.66 54.204C159.109 54.204 158.655 54.1067 158.265 53.9445C157.876 53.7823 157.519 53.4579 157.227 53.0362L158.071 52.3875Z" fill="black"/>
<path fill-rule="evenodd" clip-rule="evenodd" d="M167.964 53.8795C168.418 53.6849 168.808 53.3605 169.197 52.8739L168.386 52.2901C168.126 52.6144 167.867 52.8415 167.543 53.0037C167.218 53.1659 166.829 53.2308 166.375 53.2308C166.115 53.2308 165.823 53.1659 165.596 53.0686C165.369 52.9713 165.175 52.8415 164.98 52.6469C164.818 52.4523 164.656 52.2576 164.558 51.9981C164.461 51.7386 164.396 51.4791 164.364 51.2196H169.424V50.8952C169.424 50.3762 169.359 49.9221 169.197 49.5004C169.035 49.0787 168.84 48.7543 168.581 48.4624C168.321 48.1704 167.997 47.9758 167.64 47.8136C167.283 47.6514 166.894 47.5865 166.44 47.5865C165.953 47.5865 165.531 47.6514 165.142 47.8136C164.753 47.9758 164.428 48.2029 164.137 48.4948C163.845 48.7868 163.618 49.1111 163.455 49.5328C163.293 49.9221 163.228 50.3762 163.228 50.8628C163.228 51.3169 163.293 51.7711 163.455 52.1603C163.585 52.5496 163.812 52.9064 164.072 53.1983C164.364 53.4903 164.688 53.7498 165.077 53.912C165.467 54.0742 165.921 54.1715 166.407 54.1715C166.991 54.1715 167.51 54.0742 167.964 53.8795ZM167.77 49.0138C168.094 49.3382 168.256 49.7599 168.289 50.3113H164.364C164.428 49.7599 164.656 49.3382 165.012 49.0138C165.369 48.6894 165.823 48.5273 166.407 48.5273C166.991 48.5273 167.445 48.6894 167.77 49.0138Z" fill="black"/>
<path fill-rule="evenodd" clip-rule="evenodd" d="M171.987 47.8136C171.565 47.9758 171.176 48.2353 170.851 48.5597L171.468 49.176C171.727 48.9489 172.019 48.7543 172.343 48.657C172.668 48.5597 173.025 48.4948 173.349 48.4948C173.836 48.4948 174.225 48.6246 174.484 48.8516C174.776 49.0787 174.906 49.4355 174.906 49.8896V50.0843H174.517C174.155 50.0843 173.766 50.1122 173.349 50.1422C173.317 50.1445 173.284 50.1468 173.252 50.1492C172.797 50.1816 172.343 50.2789 171.954 50.4087C171.565 50.5384 171.208 50.7655 170.949 51.0574C170.689 51.3494 170.559 51.7711 170.559 52.2901C170.559 52.6144 170.624 52.8739 170.754 53.101C170.884 53.3281 171.078 53.5227 171.273 53.6849C171.5 53.8471 171.727 53.9768 172.019 54.0417C172.311 54.139 172.603 54.1715 172.927 54.1715C173.414 54.1715 173.803 54.0417 174.16 53.8471C174.484 53.6525 174.776 53.393 174.971 53.0686H175.003V53.5227C175.003 53.7173 175.036 53.8795 175.068 54.0093H176.074C176.057 53.9241 176.049 53.839 176.04 53.7492C176.032 53.6679 176.024 53.5827 176.009 53.4903C175.976 53.2956 175.976 53.1335 175.976 52.9388V50.2465C175.976 49.3382 175.782 48.6894 175.36 48.2353C174.938 47.8136 174.29 47.5865 173.349 47.5865C172.895 47.5865 172.441 47.6514 171.987 47.8136ZM172.311 51.2845C172.7 51.0899 173.219 50.9925 173.9 50.9925V51.025H174.971V51.4142C174.971 51.6737 174.906 51.9332 174.841 52.1603C174.744 52.3874 174.646 52.582 174.484 52.7442C174.322 52.9388 174.127 53.0686 173.9 53.1659C173.673 53.2632 173.381 53.3281 173.089 53.3281C172.7 53.3281 172.376 53.2308 172.116 53.0686C171.857 52.9064 171.727 52.6144 171.727 52.2252C171.727 51.7711 171.922 51.4791 172.311 51.2845Z" fill="black"/>
<path d="M177.825 49.2409C177.825 48.9489 177.825 48.6894 177.793 48.4299C177.76 48.1704 177.76 47.9434 177.76 47.7487H178.766C178.766 47.9109 178.766 48.0731 178.766 48.2677C178.766 48.4624 178.766 48.6246 178.766 48.7868H178.799C178.863 48.6246 178.961 48.4948 179.09 48.3326C179.22 48.2029 179.382 48.0731 179.545 47.9434C179.739 47.8461 179.934 47.7487 180.161 47.6839C180.388 47.619 180.615 47.5865 180.875 47.5865C180.939 47.5865 181.004 47.5865 181.102 47.5865C181.166 47.5865 181.231 47.619 181.329 47.6514L181.264 48.7219C181.069 48.657 180.907 48.657 180.712 48.657C180.064 48.657 179.609 48.8516 179.318 49.2733C179.026 49.695 178.896 50.2465 178.896 50.9925V54.0417H177.858V49.2409H177.825Z" fill="black"/>
<path d="M186.681 49.3058C186.454 49.0463 186.227 48.8517 185.967 48.7219C185.708 48.5922 185.416 48.5273 185.124 48.5273C184.767 48.5273 184.475 48.5922 184.183 48.7219C183.924 48.8517 183.697 49.0139 183.534 49.241C183.372 49.468 183.243 49.6951 183.145 49.987C183.048 50.279 183.015 50.5709 183.015 50.8953C183.015 51.2197 183.08 51.5116 183.178 51.8036C183.275 52.0955 183.437 52.3226 183.599 52.5496C183.794 52.7767 183.989 52.9389 184.248 53.0686C184.508 53.1984 184.8 53.2633 185.124 53.2633C185.805 53.2633 186.357 53.0038 186.713 52.4848L187.492 53.2308C187.2 53.5877 186.843 53.8472 186.421 54.0093C186 54.1715 185.578 54.2364 185.124 54.2364C184.637 54.2364 184.183 54.1715 183.794 54.0093C183.405 53.8472 183.048 53.6201 182.756 53.3281C182.464 53.0362 182.269 52.6794 182.107 52.2901C181.945 51.9009 181.88 51.4467 181.88 50.9602C181.88 50.4736 181.945 50.0519 182.107 49.6302C182.269 49.241 182.496 48.8841 182.756 48.5922C183.048 48.3003 183.372 48.0732 183.794 47.911C184.183 47.7488 184.637 47.6515 185.124 47.6515C185.578 47.6515 186.032 47.7164 186.454 47.8786C186.876 48.0407 187.232 48.3003 187.557 48.6246L186.681 49.3058Z" fill="black"/>
<path d="M188.595 43.8887H189.633V48.6246H189.665C189.73 48.4949 189.827 48.3651 189.957 48.2678C190.087 48.1705 190.217 48.0407 190.411 47.9434C190.574 47.8461 190.768 47.7488 190.995 47.7164C191.222 47.6515 191.449 47.619 191.676 47.619C192.098 47.619 192.455 47.6839 192.747 47.8137C193.039 47.9434 193.298 48.1056 193.493 48.3327C193.688 48.5598 193.85 48.8193 193.915 49.1436C194.012 49.468 194.044 49.7924 194.044 50.1817V54.0742H193.006V50.3114C193.006 49.7924 192.877 49.3707 192.65 49.0463C192.423 48.7544 192.066 48.5922 191.547 48.5922C191.222 48.5922 190.898 48.6571 190.671 48.7544C190.411 48.8841 190.217 49.0463 190.055 49.2409C189.892 49.468 189.795 49.6951 189.698 50.0195C189.6 50.3438 189.568 50.6358 189.568 50.9926V54.0418H188.53V43.8887H188.595Z" fill="black"/>
<path d="M199.786 44.505H201.213L206.728 52.3875H206.76V44.505H207.895V54.0094H206.468L200.954 46.1269H200.921V54.0094H199.786V44.505Z" fill="black"/>
<path fill-rule="evenodd" clip-rule="evenodd" d="M214.318 53.8795C214.772 53.6849 215.162 53.3605 215.551 52.8739L214.74 52.2901C214.48 52.6144 214.221 52.8415 213.896 53.0037C213.572 53.1659 213.183 53.2308 212.729 53.2308C212.469 53.2308 212.177 53.1659 211.95 53.0686C211.723 52.9713 211.528 52.8415 211.334 52.6469C211.172 52.4523 211.009 52.2576 210.912 51.9981C210.815 51.7386 210.75 51.4791 210.718 51.2196H215.778V50.8952C215.778 50.3762 215.713 49.9221 215.551 49.5004C215.389 49.0787 215.194 48.7543 214.934 48.4624C214.675 48.1704 214.351 47.9758 213.994 47.8136C213.637 47.6514 213.248 47.5865 212.794 47.5865C212.307 47.5865 211.885 47.6514 211.496 47.8136C211.107 47.9758 210.782 48.2029 210.49 48.4948C210.199 48.7868 209.971 49.1111 209.809 49.5328C209.647 49.9221 209.582 50.3762 209.582 50.8628C209.582 51.3169 209.647 51.7711 209.809 52.1603C209.939 52.5496 210.166 52.9064 210.426 53.1983C210.718 53.4903 211.042 53.7498 211.431 53.912C211.82 54.0742 212.275 54.1715 212.761 54.1715C213.345 54.1715 213.864 54.0742 214.318 53.8795ZM214.156 49.0138C214.48 49.3382 214.643 49.7599 214.675 50.3113H210.75C210.815 49.7599 211.042 49.3382 211.399 49.0138C211.756 48.6894 212.21 48.5273 212.794 48.5273C213.377 48.5273 213.832 48.6894 214.156 49.0138Z" fill="black"/>
<path d="M220.773 48.6246H218.924V51.771C218.924 51.9657 218.924 52.1603 218.924 52.3549C218.924 52.5171 218.957 52.6793 219.022 52.8091C219.087 52.9388 219.184 53.0361 219.314 53.1334C219.443 53.1983 219.606 53.2632 219.865 53.2632C220.027 53.2632 220.189 53.2308 220.319 53.1983C220.449 53.1659 220.644 53.101 220.773 53.0361L220.806 53.9768C220.611 54.0417 220.417 54.1066 220.222 54.139C219.995 54.1715 219.8 54.2039 219.606 54.2039C219.216 54.2039 218.924 54.139 218.697 54.0417C218.47 53.9444 218.308 53.8146 218.178 53.62C218.049 53.4254 217.984 53.2308 217.919 52.9713C217.886 52.7117 217.854 52.4198 217.854 52.0954V48.657H216.492V47.7812H217.854V45.9971H218.892V47.7812H220.741V48.6246H220.773Z" fill="black"/>
<path d="M228.688 54.0418H227.65L225.866 49.2085H225.834L224.244 54.0418H223.174L221.13 47.7488H222.298L223.725 52.5821H223.758L225.38 47.7488H226.482L228.137 52.5821H228.169L229.596 47.7488H230.732L228.688 54.0418Z" fill="black"/>
<path fill-rule="evenodd" clip-rule="evenodd" d="M231.705 49.5653C231.543 49.9546 231.445 50.4087 231.445 50.8953C231.445 51.3818 231.543 51.836 231.705 52.2252C231.9 52.6145 232.127 52.9713 232.419 53.2632C232.711 53.5552 233.067 53.7822 233.489 53.9444C233.878 54.1066 234.332 54.1715 234.819 54.1715C235.306 54.1715 235.727 54.1066 236.149 53.9444C236.571 53.7822 236.927 53.5552 237.219 53.2632C237.544 52.9713 237.771 52.6145 237.933 52.2252C238.095 51.836 238.193 51.3818 238.193 50.8953C238.193 50.4087 238.095 49.9546 237.933 49.5653C237.738 49.176 237.511 48.8192 237.219 48.5273C236.927 48.2353 236.571 48.0083 236.149 47.8461C235.76 47.6839 235.306 47.619 234.819 47.619C234.332 47.619 233.911 47.6839 233.489 47.8461C233.067 48.0083 232.711 48.2353 232.419 48.5273C232.094 48.8192 231.867 49.176 231.705 49.5653ZM232.743 51.8035C232.646 51.544 232.581 51.2196 232.581 50.8953C232.581 50.5384 232.646 50.2465 232.743 49.987C232.84 49.6951 233.002 49.4355 233.197 49.2409C233.392 49.0463 233.651 48.8841 233.911 48.7544C234.17 48.6246 234.495 48.5597 234.819 48.5597C235.143 48.5597 235.468 48.6246 235.727 48.7544C236.019 48.8517 236.246 49.0463 236.441 49.2409C236.636 49.468 236.798 49.6951 236.895 49.987C236.992 50.2465 237.057 50.5709 237.057 50.8953C237.057 51.2196 236.992 51.5116 236.895 51.8035C236.798 52.0955 236.636 52.355 236.441 52.5496C236.246 52.7442 235.987 52.9064 235.727 53.0362C235.468 53.1659 235.143 53.2308 234.819 53.2308C234.495 53.2308 234.17 53.1659 233.911 53.0362C233.619 52.9389 233.392 52.7442 233.197 52.5496C233.002 52.3225 232.84 52.0955 232.743 51.8035Z" fill="black"/>
<path d="M239.685 49.2409C239.685 48.9489 239.685 48.6894 239.652 48.4299C239.62 48.1704 239.62 47.9434 239.62 47.7487H240.625C240.625 47.9109 240.625 48.0731 240.625 48.2677C240.625 48.4624 240.625 48.6246 240.625 48.7868H240.658C240.723 48.6246 240.82 48.4948 240.95 48.3326C241.08 48.2029 241.242 48.0731 241.404 47.9434C241.599 47.8461 241.793 47.7487 242.02 47.6839C242.247 47.619 242.474 47.5865 242.734 47.5865C242.799 47.5865 242.864 47.5865 242.961 47.5865C243.026 47.5865 243.091 47.619 243.188 47.6514L243.123 48.7219C242.929 48.657 242.766 48.657 242.572 48.657C241.923 48.657 241.469 48.8516 241.177 49.2733C240.885 49.695 240.755 50.2465 240.755 50.9925V54.0417H239.685V49.2409Z" fill="black"/>
<path d="M244.323 43.8887H245.361V50.5385L248.216 47.7812H249.708L246.659 50.6358L250 54.0742H248.443L245.329 50.7655V54.0742H244.291V43.8887H244.323Z" fill="black"/>
</svg>
