<svg width="111" height="22" viewBox="0 0 111 22" fill="none" xmlns="http://www.w3.org/2000/svg">
<circle cx="12.6593" cy="7.71621" r="6.6" fill="#D9E021"/>
<circle opacity="0.72" cx="7.71109" cy="11.8939" r="6.6" fill="#9E005D"/>
<circle opacity="0.73" cx="13.8503" cy="14.0941" r="6.6" fill="#29ABE2"/>
<circle cx="12.6793" cy="7.76016" r="6.6" stroke="white" stroke-linecap="round"/>
<path fill-rule="evenodd" clip-rule="evenodd" d="M30.1737 16.7768C33.532 16.7768 36.1836 14.2016 36.1836 10.8087C36.1836 7.41403 33.532 4.83887 30.1737 4.83887C26.9178 4.89574 24.3081 7.5514 24.3081 10.8078C24.3081 14.0642 26.9178 16.7199 30.1737 16.7768ZM30.0899 15.7387C27.3909 15.7387 25.3348 13.4349 25.3348 10.8342C25.3348 8.18258 27.3654 5.87877 30.0899 5.88059C32.9127 5.88059 35.069 8.01138 35.069 10.8342C35.069 13.6079 32.8891 15.7387 30.0899 15.7387Z" fill="white"/>
<path d="M42.3757 14.5243L46.4369 5.08691H47.577L42.3502 17.1487L37.0997 5.08691H38.2416L42.3757 14.5243Z" fill="white"/>
<path fill-rule="evenodd" clip-rule="evenodd" d="M54.1897 15.737C51.5363 15.737 49.5329 13.8047 49.6076 10.9072L59.5386 10.909C59.5641 7.6145 57.5007 4.84082 54.0404 4.84082C50.6967 4.84082 48.493 7.59082 48.493 10.7852C48.493 14.0306 50.6475 16.7787 54.0404 16.7787C56.2053 16.8289 58.2036 15.622 59.1671 13.6827L58.2273 13.1363C57.4096 14.6716 55.9727 15.737 54.1897 15.737ZM54.0659 5.8789C56.4207 5.8789 58.1526 7.76201 58.424 9.86731H49.6076C49.8061 7.71284 51.7111 5.8789 54.0659 5.8789Z" fill="white"/>
<path d="M64.3447 6.57264H64.3939C64.8401 5.53274 65.656 4.83887 66.8707 4.83887C67.2901 4.84016 67.7041 4.9334 68.0836 5.11205L67.4899 6.09913C67.2512 5.95356 66.9773 5.87609 66.6977 5.87513C64.1954 5.87513 64.3447 8.99665 64.3447 10.6813V16.5291H63.2301V5.08655H64.3447V6.57264Z" fill="white"/>
<path d="M72.8333 16.5293H71.7187V6.12666H70.4566V5.08675H71.7187V1H72.8333V5.08675H74.8366V6.12666H72.8333V16.5293Z" fill="white"/>
<path d="M87.299 5.08691V11.9473C87.299 13.1111 87.3227 14.2766 86.6051 15.2419C85.8129 16.2818 84.4743 16.7771 83.1868 16.7771C81.8992 16.7771 80.5624 16.2818 79.7647 15.2419C79.0472 14.2766 79.0727 13.1111 79.0727 11.9473V5.08691H80.1873V11.5521C80.1873 13.7558 80.4349 15.7409 83.1831 15.7409C85.9313 15.7409 86.1808 13.7594 86.1808 11.5521V5.08691H87.299Z" fill="white"/>
<path d="M94.0356 6.57264H94.0848C94.531 5.53274 95.3487 4.83887 96.5616 4.83887C96.981 4.84016 97.395 4.9334 97.7745 5.11205L97.1808 6.09913C96.9421 5.95356 96.6681 5.87609 96.3886 5.87513C93.8863 5.87513 94.0356 8.99665 94.0356 10.6813V16.5291H92.921V5.08655H94.0356V6.57264Z" fill="white"/>
<path fill-rule="evenodd" clip-rule="evenodd" d="M105.38 15.737C102.728 15.737 100.723 13.8047 100.796 10.9072L110.729 10.909C110.754 7.6145 108.691 4.84082 105.23 4.84082C101.887 4.84082 99.6813 7.59082 99.6813 10.7852C99.6813 14.0306 101.838 16.7787 105.23 16.7787C107.395 16.8289 109.394 15.622 110.357 13.6827L109.416 13.1363C108.6 14.6716 107.163 15.737 105.38 15.737ZM105.254 5.8789C107.611 5.8789 109.343 7.76201 109.614 9.86731H100.796C100.994 7.71284 102.898 5.8789 105.254 5.8789Z" fill="white"/>
<path d="M9.59603 19.265C9.10446 18.8316 8.67542 18.3321 8.32119 17.7807C7.97423 17.2169 7.71738 16.6025 7.55993 15.9595C7.39258 15.3129 7.30693 14.6478 7.30497 13.9799C7.30553 13.3037 7.39306 12.6304 7.5654 11.9766L8.25927 12.1933C8.04619 12.7804 7.90969 13.3925 7.85314 14.0145C7.79497 14.6412 7.81701 15.2728 7.91871 15.8939C8.0093 16.5231 8.19861 17.134 8.47963 17.7042C8.77964 18.2725 9.15518 18.7975 9.59603 19.265Z" fill="white"/>
<path d="M6.34702 5.39619C7.50032 5.16358 8.6948 5.24279 9.80728 5.62566C10.9494 6.0106 11.9722 6.68515 12.7758 7.58344L12.1985 8.04238C10.8499 6.19164 8.62737 5.18654 6.34702 5.39619H6.34702Z" fill="white"/>
<path d="M19.1773 9.15918C19.0266 9.78768 18.781 10.3895 18.4488 10.9439C18.1081 11.5033 17.692 12.0132 17.2122 12.4592C16.2404 13.3758 15.0486 14.0263 13.752 14.3478L13.6099 13.6338C14.8391 13.4461 15.9989 12.9442 16.9773 12.1769C17.4746 11.7925 17.9159 11.3408 18.2886 10.8347C18.6683 10.3246 18.9679 9.7596 19.1773 9.15918V9.15918Z" fill="white"/>
<path d="M12.7066 7.54004C10.3542 7.96523 8.41352 9.62536 7.62914 11.8836C7.61718 11.9152 7.60684 11.9474 7.59818 11.9801C8.34318 12.889 9.31877 13.5809 10.4228 13.9834C11.5294 14.3898 12.7262 14.4849 13.8831 14.2584C13.8831 14.2311 13.905 14.2056 13.9141 14.1783C14.7174 11.908 14.2579 9.38205 12.7066 7.54004Z" fill="white"/>
<circle cx="13.8849" cy="14.1889" r="6.6" stroke="white" stroke-linecap="round"/>
<circle cx="7.6" cy="11.8852" r="6.6" stroke="white" stroke-linecap="round"/>
</svg>
