<svg width="40" height="41" viewBox="0 0 40 41" fill="none" xmlns="http://www.w3.org/2000/svg">
<path fill-rule="evenodd" clip-rule="evenodd" d="M20 40.5536C31.0457 40.5536 40 31.4754 40 20.2768C40 9.07824 31.0457 0 20 0C8.9543 0 0 9.07824 0 20.2768C0 31.4754 8.9543 40.5536 20 40.5536ZM29.8018 13.0513C30.8671 12.9224 31.8803 12.6354 32.8237 12.211C32.1163 13.2836 31.2262 14.2198 30.195 14.976C30.206 15.2049 30.2111 15.4345 30.2111 15.666C30.2111 22.7147 24.9186 30.8428 15.2414 30.8428C12.2701 30.8428 9.50506 29.959 7.1763 28.4451C7.58812 28.4954 8.00761 28.5211 8.43205 28.5211C10.8964 28.5211 13.1653 27.668 14.966 26.237C12.6643 26.1934 10.7212 24.6513 10.0517 22.5328C10.3734 22.5942 10.7027 22.6267 11.0421 22.6267C11.5222 22.6267 11.9862 22.5625 12.4284 22.4397C10.0213 21.9496 8.20801 19.7944 8.20801 17.2097V17.1423C8.93863 17.5542 9.7559 17.7829 10.5915 17.8092C9.17997 16.8528 8.251 15.2202 8.251 13.3698C8.251 12.3922 8.51036 11.4759 8.96346 10.6878C11.5584 13.9146 15.4351 16.0382 19.8079 16.261C19.7187 15.87 19.6723 15.4626 19.6723 15.0451C19.6723 12.0984 22.0281 9.71097 24.9329 9.71097C26.4462 9.71097 27.8141 10.3582 28.7734 11.3948C29.9521 11.1601 31.0824 10.7223 32.1152 10.1003C31.722 11.3452 30.889 12.3912 29.8018 13.0513Z" fill="white"/>
</svg>
