<svg width="20" height="20" viewBox="0 0 20 20" fill="none" xmlns="http://www.w3.org/2000/svg">
<path fill-rule="evenodd" clip-rule="evenodd" d="M7.50448 19.4864V17.7435C4.73314 18.3605 4.1443 16.3686 4.1443 16.3686C3.97089 15.7569 3.58841 15.2265 3.06385 14.8692C2.16168 14.2359 3.13408 14.2467 3.13408 14.2467C3.77965 14.3415 4.34418 14.7317 4.66291 15.3022C5.19665 16.3318 6.46131 16.7329 7.48881 16.1986C7.5142 16.1851 7.53905 16.1716 7.5639 16.1575C7.61036 15.64 7.83347 15.1545 8.19596 14.7826C5.98105 14.5282 3.65269 13.6459 3.65269 9.72155C3.63541 8.70772 4.00222 7.72528 4.67912 6.9718C4.37929 6.08788 4.41603 5.12384 4.78176 4.26536C4.78176 4.26536 5.6191 3.9893 7.52069 5.31546C9.15432 4.85266 10.8836 4.85266 12.5177 5.31546C14.4193 3.9893 15.2567 4.26536 15.2567 4.26536C15.6246 5.12384 15.6586 6.08896 15.3539 6.9718C16.0308 7.72528 16.3971 8.70772 16.3803 9.72155C16.3803 13.6567 14.0466 14.5228 11.8263 14.7772C12.3092 15.286 12.5545 15.9767 12.5015 16.6771V19.4864C12.5015 19.822 12.6798 20.0764 13.1876 19.979C17.303 18.524 20.0409 14.6083 19.9993 10.2358C20.0652 4.64859 15.5986 0.0665786 10.023 0.000541289C10.0062 0 9.99004 0 9.9733 0C4.39604 0.0714502 -0.0683559 4.65833 0.000792545 10.2466C-0.0402643 14.6229 2.70298 18.5397 6.8238 19.9898C7.3208 20.0602 7.50448 19.7462 7.50448 19.4864Z" fill="white"/>
</svg>
